M48
METRIC,LZ,000.000
;FILE_FORMAT=3:3
;TYPE=PLATED
;Layer: PTH_Through_Via
;EasyEDA v6.5.54, 2026-03-22 12:46:01
;1c4a7dc281b241e1b8fa7fe193f345e7,78d06e4c035b4befa205035942b11892,10
;Gerber Generator version 0.2
;Holesize 1 = 0.301 mm
T01C0.301
;Holesize 2 = 0.306 mm
T02C0.306
;Holesize 3 = 0.310 mm
T03C0.310
%
G05
G90
T01
X020701Y-017653
T02
X-009538Y-008736
X-008531Y-009373
X-006985Y-003810
X-014185Y007148
X-007018Y-004683
X-014732Y003048
X-005136Y-008620
X-026173Y015532
X-004559Y-008009
X-025525Y014980
X009910Y-003990
X-002413Y-008509
T03
X027432Y011176
X017653Y000762
X020574Y016637
X023368Y012192
X021082Y003175
X021717Y004572
X022352Y005334
X022987Y004699
X-006095Y005462
X-003048Y-004445
X-003936Y-003301
X-002159Y-005334
X011303Y009779
X025528Y002541
X029210Y011684
X027686Y009906
X019939Y-018923
X019305Y-026034
X-006985Y016256
X-008255Y016256
X010922Y003810
X010795Y004953
X005969Y-005080
X005334Y-006223
X000000Y-007747
X-001016Y-006985
X016129Y-010922
X-007365Y-013080
X-001016Y-013970
X-007365Y-017017
X-014097Y-017018
X-015494Y-010414
X002921Y006096
X000000Y006096
X008255Y008509
X005842Y008382
X-005080Y-004572
X-009906Y-005461
X007366Y-013460
X008255Y-022479
X-030353Y-006985
X-018415Y-011557
X-018415Y-010541
X-019812Y-010668
X-022098Y-011684
X-020828Y-010414
X-025273Y005842
X-011938Y009017
X000254Y-002159
X-023368Y007112
X-012954Y008001
X000889Y-002921
X-000508Y-001016
X001143Y003048
X-032385Y-001143
X-001905Y-007620
X-004699Y-017399
X008255Y-010668
X007112Y-008890
X023495Y-018288
X025908Y-024638
X013462Y-001905
X007620Y-003429
X-002159Y-018923
X027686Y005461
X-017018Y-012573
X-033065Y-011557
X-027940Y-013462
X013589Y009783
X020193Y015367
X018288Y011049
X002254Y-013666
X-007239Y-011684
X003048Y008763
X005080Y003683
X007239Y-004826
X004318Y-001397
X-007747Y000635
X013843Y-008001
X020320Y-021717
X027432Y-001778
X021844Y-021844
X023876Y-019443
M30
