G04 Layer: TopSolderMaskLayer*
G04 EasyEDA v6.5.54, 2026-03-22 12:46:01*
G04 1c4a7dc281b241e1b8fa7fe193f345e7,78d06e4c035b4befa205035942b11892,10*
G04 Gerber Generator version 0.2*
G04 Scale: 100 percent, Rotated: No, Reflected: No *
G04 Dimensions in millimeters *
G04 leading zeros omitted , absolute positions ,4 integer and 5 decimal *
%FSLAX45Y45*%
%MOMM*%

%AMMACRO1*4,1,8,-0.4711,-0.4508,-0.5008,-0.421,-0.5008,0.4211,-0.4711,0.4508,0.471,0.4508,0.5008,0.4211,0.5008,-0.421,0.471,-0.4508,-0.4711,-0.4508,0*%
%AMMACRO2*4,1,8,-0.0564,-0.6518,-0.6518,-0.0564,-0.6518,-0.0143,0.0143,0.6518,0.0564,0.6518,0.6518,0.0564,0.6518,0.0143,-0.0143,-0.6518,-0.0564,-0.6518,0*%
%AMMACRO3*4,1,8,0.0143,-0.6518,-0.6518,0.0143,-0.6518,0.0564,-0.0564,0.6518,-0.0143,0.6518,0.6518,-0.0143,0.6518,-0.0564,0.0564,-0.6518,0.0143,-0.6518,0*%
%AMMACRO4*4,1,8,-0.4211,-0.5008,-0.4508,-0.471,-0.4508,0.4711,-0.4211,0.5008,0.421,0.5008,0.4508,0.4711,0.4508,-0.471,0.421,-0.5008,-0.4211,-0.5008,0*%
%AMMACRO5*4,1,8,-0.3211,-0.7008,-0.3508,-0.671,-0.3508,0.6711,-0.3211,0.7008,0.321,0.7008,0.3508,0.6711,0.3508,-0.671,0.321,-0.7008,-0.3211,-0.7008,0*%
%AMMACRO6*4,1,8,-0.6211,-0.7508,-0.6508,-0.721,-0.6508,0.7211,-0.6211,0.7508,0.621,0.7508,0.6508,0.7211,0.6508,-0.721,0.621,-0.7508,-0.6211,-0.7508,0*%
%AMMACRO7*4,1,8,-0.6211,-1.0508,-0.6508,-1.021,-0.6508,1.0211,-0.6211,1.0508,0.621,1.0508,0.6508,1.0211,0.6508,-1.021,0.621,-1.0508,-0.6211,-1.0508,0*%
%AMMACRO8*4,1,8,-0.4531,-0.4508,-0.4828,-0.421,-0.4828,0.4211,-0.4531,0.4508,0.453,0.4508,0.4828,0.4211,0.4828,-0.421,0.453,-0.4508,-0.4531,-0.4508,0*%
%AMMACRO9*4,1,8,-1.6811,-0.8008,-1.7108,-0.771,-1.7108,0.7711,-1.6811,0.8008,1.681,0.8008,1.7108,0.7711,1.7108,-0.771,1.681,-0.8008,-1.6811,-0.8008,0*%
%AMMACRO10*4,1,8,-1.1011,-0.8683,-1.1308,-0.8385,-1.1308,0.8386,-1.1011,0.8683,1.101,0.8683,1.1308,0.8386,1.1308,-0.8385,1.101,-0.8683,-1.1011,-0.8683,0*%
%AMMACRO11*4,1,8,-0.5211,-0.5008,-0.5508,-0.471,-0.5508,0.471,-0.5211,0.5008,0.521,0.5008,0.5508,0.471,0.5508,-0.471,0.521,-0.5008,-0.5211,-0.5008,0*%
%AMMACRO12*4,1,8,-0.8711,-0.9008,-0.9008,-0.871,-0.9008,0.8711,-0.8711,0.9008,0.871,0.9008,0.9008,0.8711,0.9008,-0.871,0.871,-0.9008,-0.8711,-0.9008,0*%
%AMMACRO13*4,1,8,-0.4243,-0.4828,-0.454,-0.453,-0.454,0.4531,-0.4243,0.4828,0.4243,0.4828,0.454,0.4531,0.454,-0.453,0.4243,-0.4828,-0.4243,-0.4828,0*%
%AMMACRO14*4,1,8,-0.4531,-0.454,-0.4828,-0.4243,-0.4828,0.4243,-0.4531,0.454,0.453,0.454,0.4828,0.4243,0.4828,-0.4243,0.453,-0.454,-0.4531,-0.454,0*%
%AMMACRO15*4,1,8,-0.6361,-0.9808,-0.6658,-0.951,-0.6658,0.9511,-0.6361,0.9808,0.636,0.9808,0.6658,0.9511,0.6658,-0.951,0.636,-0.9808,-0.6361,-0.9808,0*%
%AMMACRO16*4,1,8,-0.287,-0.5868,-0.3168,-0.557,-0.3168,0.557,-0.287,0.5868,0.287,0.5868,0.3168,0.557,0.3168,-0.557,0.287,-0.5868,-0.287,-0.5868,0*%
%AMMACRO17*4,1,8,-0.1611,-0.4008,-0.1908,-0.371,-0.1908,0.3711,-0.1611,0.4008,0.161,0.4008,0.1908,0.3711,0.1908,-0.371,0.161,-0.4008,-0.1611,-0.4008,0*%
%AMMACRO18*4,1,8,-0.3711,-0.1908,-0.4008,-0.161,-0.4008,0.1611,-0.3711,0.1908,0.371,0.1908,0.4008,0.1611,0.4008,-0.161,0.371,-0.1908,-0.3711,-0.1908,0*%
%AMMACRO19*4,1,8,-1.4211,-1.4508,-1.4508,-1.421,-1.4508,1.4211,-1.4211,1.4508,1.421,1.4508,1.4508,1.4211,1.4508,-1.421,1.421,-1.4508,-1.4211,-1.4508,0*%
%AMMACRO20*4,1,8,-0.3585,-0.1908,-0.3883,-0.161,-0.3883,0.1611,-0.3585,0.1908,0.3585,0.1908,0.3883,0.1611,0.3883,-0.161,0.3585,-0.1908,-0.3585,-0.1908,0*%
%AMMACRO21*4,1,8,-0.1611,-0.3883,-0.1908,-0.3585,-0.1908,0.3585,-0.1611,0.3883,0.161,0.3883,0.1908,0.3585,0.1908,-0.3585,0.161,-0.3883,-0.1611,-0.3883,0*%
%AMMACRO22*4,1,8,-0.3211,-0.8008,-0.3508,-0.771,-0.3508,0.7711,-0.3211,0.8008,0.321,0.8008,0.3508,0.7711,0.3508,-0.771,0.321,-0.8008,-0.3211,-0.8008,0*%
%AMMACRO23*4,1,8,-0.7211,-1.1508,-0.7508,-1.121,-0.7508,1.1211,-0.7211,1.1508,0.721,1.1508,0.7508,1.1211,0.7508,-1.121,0.721,-1.1508,-0.7211,-1.1508,0*%
%AMMACRO24*4,1,8,-0.2957,-0.6,-0.325,-0.5707,-0.325,0.5707,-0.2957,0.6,0.2957,0.6,0.325,0.5707,0.325,-0.5707,0.2957,-0.6,-0.2957,-0.6,0*%
%AMMACRO25*4,1,8,-0.1707,-0.6,-0.2,-0.5707,-0.2,0.5707,-0.1707,0.6,0.1707,0.6,0.2,0.5707,0.2,-0.5707,0.1707,-0.6,-0.1707,-0.6,0*%
%AMMACRO26*4,1,8,-0.5211,-0.9508,-0.5508,-0.921,-0.5508,0.9211,-0.5211,0.9508,0.521,0.9508,0.5508,0.9211,0.5508,-0.921,0.521,-0.9508,-0.5211,-0.9508,0*%
%AMMACRO27*4,1,8,-0.7211,-0.6508,-0.7508,-0.621,-0.7508,0.6211,-0.7211,0.6508,0.721,0.6508,0.7508,0.6211,0.7508,-0.621,0.721,-0.6508,-0.7211,-0.6508,0*%
%AMMACRO28*4,1,8,-0.0423,-1.0266,-1.0266,-0.0423,-1.0266,-0.0002,0.0002,1.0266,0.0423,1.0266,1.0266,0.0423,1.0266,0.0002,-0.0002,-1.0266,-0.0423,-1.0266,0*%
%AMMACRO29*4,1,8,-0.6961,-0.7558,-0.7258,-0.726,-0.7258,0.7261,-0.6961,0.7558,0.696,0.7558,0.7258,0.7261,0.7258,-0.726,0.696,-0.7558,-0.6961,-0.7558,0*%
%AMMACRO30*4,1,8,-0.7261,-0.7258,-0.7558,-0.696,-0.7558,0.6961,-0.7261,0.7258,0.726,0.7258,0.7558,0.6961,0.7558,-0.696,0.726,-0.7258,-0.7261,-0.7258,0*%
%ADD10MACRO1*%
%ADD11MACRO2*%
%ADD12MACRO3*%
%ADD13MACRO4*%
%ADD14MACRO5*%
%ADD15MACRO6*%
%ADD16MACRO7*%
%ADD17C,0.0154*%
%ADD18MACRO8*%
%ADD19MACRO9*%
%ADD20MACRO10*%
%ADD21MACRO11*%
%ADD22C,1.8016*%
%ADD23MACRO12*%
%ADD24MACRO13*%
%ADD25MACRO14*%
%ADD26MACRO15*%
%ADD27O,1.601597X0.401599*%
%ADD28O,0.401599X1.601597*%
%ADD29MACRO16*%
%ADD30MACRO17*%
%ADD31MACRO18*%
%ADD32MACRO19*%
%ADD33C,5.9000*%
%ADD34MACRO20*%
%ADD35MACRO21*%
%ADD36MACRO22*%
%ADD37MACRO23*%
%ADD38MACRO24*%
%ADD39MACRO25*%
%ADD40O,1.200023X2.100021*%
%ADD41O,1.300023X1.900022*%
%ADD42MACRO26*%
%ADD43MACRO27*%
%ADD44MACRO28*%
%ADD45MACRO29*%
%ADD46MACRO30*%
%ADD47C,0.7216*%

%LPD*%
D10*
G01*
X47599Y-1366593D03*
G01*
X47599Y-1226593D03*
G01*
X-596900Y-1390799D03*
G01*
X-596900Y-1250800D03*
D11*
G01*
X-840098Y378504D03*
G01*
X-741104Y279510D03*
G01*
X-1132198Y99104D03*
G01*
X-1033204Y110D03*
D12*
G01*
X414595Y238804D03*
G01*
X315601Y139810D03*
D10*
G01*
X225399Y-1366593D03*
G01*
X225399Y-1226593D03*
G01*
X-1092200Y-1212999D03*
G01*
X-1092200Y-1073000D03*
D11*
G01*
X-1017898Y276904D03*
G01*
X-918904Y177910D03*
D10*
G01*
X-1997100Y-616993D03*
G01*
X-1997100Y-756993D03*
G01*
X-1311300Y-756993D03*
G01*
X-1311300Y-616993D03*
G01*
X-1981200Y-311299D03*
G01*
X-1981200Y-171300D03*
G01*
X-1295400Y-311299D03*
G01*
X-1295400Y-171300D03*
D13*
G01*
X1184399Y-1995093D03*
G01*
X1044399Y-1995093D03*
D10*
G01*
X1841500Y-412899D03*
G01*
X1841500Y-272900D03*
D13*
G01*
X2584599Y-533400D03*
G01*
X2444600Y-533400D03*
D10*
G01*
X2082800Y-1568599D03*
G01*
X2082800Y-1428600D03*
D13*
G01*
X1708000Y1574800D03*
G01*
X1847999Y1574800D03*
G01*
X1552399Y760806D03*
G01*
X1692399Y760806D03*
D10*
G01*
X-816000Y843206D03*
G01*
X-816000Y983206D03*
G01*
X-625500Y843206D03*
G01*
X-625500Y983206D03*
D13*
G01*
X1070099Y-699693D03*
G01*
X930099Y-699693D03*
D10*
G01*
X1292199Y-642693D03*
G01*
X1292199Y-502693D03*
D13*
G01*
X-2813199Y-127000D03*
G01*
X-2673200Y-127000D03*
D14*
G01*
X-2306510Y-1226191D03*
G01*
X-2416507Y-1226191D03*
G01*
X-2526504Y-1226191D03*
G01*
X-2636502Y-1226191D03*
G01*
X-2746502Y-1226191D03*
G01*
X-2856499Y-1226191D03*
G01*
X-2966496Y-1226191D03*
G01*
X-3076496Y-1226191D03*
G01*
X-3186498Y-1226231D03*
D15*
G01*
X-3306490Y-1311214D03*
G01*
X-1838510Y-1311214D03*
D16*
G01*
X-1754499Y-2281392D03*
G01*
X-3306503Y-2281392D03*
D18*
G01*
X-1095413Y-896693D03*
G01*
X-1095413Y-756693D03*
D19*
G01*
X2146301Y-680001D03*
G01*
X2146301Y-945598D03*
D18*
G01*
X2425712Y-2304900D03*
G01*
X2425712Y-2444899D03*
D20*
G01*
X1317599Y1449044D03*
G01*
X1317599Y1215542D03*
D21*
G01*
X1981200Y567596D03*
G01*
X1981200Y397596D03*
D22*
G01*
X-1082700Y-2566593D03*
G01*
X-1082700Y-2312593D03*
D23*
G01*
X-1082704Y-2058595D03*
D22*
G01*
X-777900Y-2566593D03*
G01*
X-777900Y-2312593D03*
D23*
G01*
X-777904Y-2058595D03*
D24*
G01*
X1177024Y-1626793D03*
G01*
X1026374Y-1626793D03*
G01*
X2439275Y-342900D03*
G01*
X2589924Y-342900D03*
G01*
X2589924Y-177800D03*
G01*
X2439275Y-177800D03*
G01*
X2104124Y-2439593D03*
G01*
X1953474Y-2439593D03*
D25*
G01*
X2285999Y-1423275D03*
G01*
X2285999Y-1573924D03*
G01*
X123799Y863281D03*
G01*
X123799Y1013931D03*
G01*
X428599Y863281D03*
G01*
X428599Y1013931D03*
D24*
G01*
X2628024Y863600D03*
G01*
X2477375Y863600D03*
D25*
G01*
X2438399Y546975D03*
G01*
X2438399Y697624D03*
G01*
X2603499Y546975D03*
G01*
X2603499Y697624D03*
G01*
X2857499Y699375D03*
G01*
X2857499Y850024D03*
D24*
G01*
X2477375Y1016000D03*
G01*
X2628024Y1016000D03*
D25*
G01*
X-384200Y329881D03*
G01*
X-384200Y480531D03*
G01*
X-219100Y329881D03*
G01*
X-219100Y480531D03*
G01*
X-63500Y331075D03*
G01*
X-63500Y481724D03*
G01*
X1562099Y77075D03*
G01*
X1562099Y227724D03*
G01*
X-2505100Y-1054418D03*
G01*
X-2505100Y-903768D03*
G01*
X-2352700Y-1054418D03*
G01*
X-2352700Y-903768D03*
G01*
X-2213000Y-1054418D03*
G01*
X-2213000Y-903768D03*
G01*
X-3114700Y-1054418D03*
G01*
X-3114700Y-903768D03*
G01*
X-2746400Y-1054418D03*
G01*
X-2746400Y-903768D03*
G01*
X-2962300Y-1054418D03*
G01*
X-2962300Y-903768D03*
D24*
G01*
X1218324Y-139700D03*
G01*
X1067675Y-139700D03*
D25*
G01*
X-117500Y-1614968D03*
G01*
X-117500Y-1765618D03*
G01*
X-282600Y-1614968D03*
G01*
X-282600Y-1765618D03*
D26*
G01*
X387910Y-1995093D03*
G01*
X824891Y-1995093D03*
G01*
X387910Y-1626793D03*
G01*
X824891Y-1626793D03*
D27*
G01*
X-838733Y-83388D03*
G01*
X-838733Y-133400D03*
G01*
X-838733Y-183387D03*
G01*
X-838733Y-233400D03*
G01*
X-838733Y-283387D03*
G01*
X-838733Y-333400D03*
G01*
X-838733Y-383387D03*
G01*
X-838733Y-433400D03*
G01*
X-838733Y-483387D03*
G01*
X-838733Y-533400D03*
G01*
X-838733Y-583387D03*
G01*
X-838733Y-633399D03*
G01*
X-838733Y-683387D03*
G01*
X-838733Y-733399D03*
G01*
X-838733Y-783386D03*
G01*
X-838733Y-833399D03*
D28*
G01*
X-643737Y-1028395D03*
G01*
X-593725Y-1028395D03*
G01*
X-543737Y-1028395D03*
G01*
X-493725Y-1028395D03*
G01*
X-443738Y-1028395D03*
G01*
X-393725Y-1028395D03*
G01*
X-343738Y-1028395D03*
G01*
X-293725Y-1028395D03*
G01*
X-243738Y-1028395D03*
G01*
X-193725Y-1028395D03*
G01*
X-143738Y-1028395D03*
G01*
X-93726Y-1028395D03*
G01*
X-43738Y-1028395D03*
G01*
X6273Y-1028395D03*
G01*
X56261Y-1028395D03*
G01*
X106273Y-1028395D03*
D27*
G01*
X298907Y-833399D03*
G01*
X298907Y-783386D03*
G01*
X298907Y-733399D03*
G01*
X298907Y-683387D03*
G01*
X298907Y-633399D03*
G01*
X298907Y-583387D03*
G01*
X298907Y-533400D03*
G01*
X298907Y-483387D03*
G01*
X298907Y-433400D03*
G01*
X298907Y-383387D03*
G01*
X298907Y-333400D03*
G01*
X298907Y-283387D03*
G01*
X298907Y-233400D03*
G01*
X298907Y-183387D03*
G01*
X298907Y-133400D03*
G01*
X298907Y-83388D03*
D28*
G01*
X106273Y111607D03*
G01*
X56261Y111607D03*
G01*
X6273Y111607D03*
G01*
X-43738Y111607D03*
G01*
X-93726Y111607D03*
G01*
X-143738Y111607D03*
G01*
X-193725Y111607D03*
G01*
X-243738Y111607D03*
G01*
X-293725Y111607D03*
G01*
X-343738Y111607D03*
G01*
X-393725Y111607D03*
G01*
X-443738Y111607D03*
G01*
X-493725Y111607D03*
G01*
X-543737Y111607D03*
G01*
X-593725Y111607D03*
G01*
X-643737Y111607D03*
D29*
G01*
X2051303Y-483209D03*
G01*
X2146300Y-483209D03*
G01*
X2241295Y-483209D03*
G01*
X2241295Y-253390D03*
G01*
X2146300Y-253390D03*
G01*
X2051303Y-253390D03*
D30*
G01*
X1954606Y789405D03*
G01*
X2004593Y789405D03*
G01*
X2054605Y789405D03*
G01*
X2104593Y789405D03*
G01*
X2154605Y789405D03*
G01*
X2204592Y789405D03*
D31*
G01*
X2279600Y864412D03*
G01*
X2279600Y914400D03*
G01*
X2279600Y964412D03*
G01*
X2279600Y1014399D03*
G01*
X2279600Y1064412D03*
G01*
X2279600Y1114399D03*
D30*
G01*
X2204592Y1189404D03*
G01*
X2154605Y1189404D03*
G01*
X2104593Y1189404D03*
G01*
X2054605Y1189404D03*
G01*
X2004593Y1189404D03*
G01*
X1955393Y1189404D03*
D31*
G01*
X1879601Y1114399D03*
G01*
X1879601Y1064412D03*
G01*
X1879601Y1014399D03*
G01*
X1879601Y964412D03*
G01*
X1879601Y914400D03*
G01*
X1879601Y864412D03*
D32*
G01*
X2080869Y989406D03*
D33*
G01*
X3451199Y667512D03*
G01*
X3451199Y1387500D03*
D34*
G01*
X886586Y-307187D03*
G01*
X886586Y-357200D03*
G01*
X886586Y-407187D03*
G01*
X886586Y-457200D03*
D35*
G01*
X962799Y-483448D03*
G01*
X1012786Y-483448D03*
G01*
X1062799Y-483448D03*
D34*
G01*
X1138986Y-457200D03*
G01*
X1138986Y-407187D03*
G01*
X1138986Y-357200D03*
G01*
X1138986Y-307187D03*
D35*
G01*
X1062799Y-280939D03*
G01*
X1012786Y-280939D03*
G01*
X962799Y-280939D03*
D36*
G01*
X-825715Y1202321D03*
G01*
X-700722Y1202321D03*
G01*
X-575703Y1202321D03*
G01*
X-450710Y1202321D03*
G01*
X-450710Y1462316D03*
G01*
X-575703Y1462316D03*
G01*
X-700722Y1462316D03*
G01*
X-825715Y1462316D03*
D37*
G01*
X-3078099Y151307D03*
G01*
X-2878099Y151307D03*
G01*
X-2678099Y151307D03*
G01*
X-2478100Y151307D03*
G01*
X-2278100Y151307D03*
G01*
X-2078101Y151307D03*
G01*
X-1878101Y151307D03*
G01*
X-1678101Y151307D03*
G01*
X-1678101Y1751304D03*
G01*
X-1878101Y1751304D03*
G01*
X-2078101Y1751304D03*
G01*
X-2278100Y1751304D03*
G01*
X-2478100Y1751304D03*
G01*
X-2678099Y1751304D03*
G01*
X-2877947Y1751304D03*
G01*
X-3078099Y1751304D03*
D38*
G01*
X608901Y1259902D03*
G01*
X528891Y1259902D03*
D39*
G01*
X463892Y1259902D03*
G01*
X413880Y1259902D03*
G01*
X363893Y1259902D03*
G01*
X313905Y1259902D03*
G01*
X263893Y1259902D03*
G01*
X213906Y1259902D03*
G01*
X163893Y1259902D03*
G01*
X113880Y1259902D03*
D38*
G01*
X48882Y1259902D03*
G01*
X-31102Y1259902D03*
D40*
G01*
X721385Y1314907D03*
G01*
X-143611Y1314907D03*
D41*
G01*
X721385Y1734921D03*
G01*
X-143611Y1734921D03*
D42*
G01*
X-1788701Y-241300D03*
G01*
X-1538698Y-241300D03*
D43*
G01*
X-1726100Y-784682D03*
G01*
X-1506100Y-784682D03*
G01*
X-1506100Y-614680D03*
G01*
X-1726100Y-614680D03*
D44*
G01*
X613610Y145719D03*
G01*
X472185Y4295D03*
D45*
G01*
X2552700Y-750897D03*
G01*
X2552700Y-950902D03*
G01*
X2768600Y-750897D03*
G01*
X2768600Y-950902D03*
D46*
G01*
X1589097Y-1612900D03*
G01*
X1789102Y-1612900D03*
G01*
X1589097Y-1816100D03*
G01*
X1789102Y-1816100D03*
G01*
X1589097Y-2032000D03*
G01*
X1789102Y-2032000D03*
G01*
X1589097Y-2235200D03*
G01*
X1789102Y-2235200D03*
G01*
X2728902Y-2057400D03*
G01*
X2528897Y-2057400D03*
G01*
X2728902Y-1866900D03*
G01*
X2528897Y-1866900D03*
G01*
X2728902Y-1676400D03*
G01*
X2528897Y-1676400D03*
D45*
G01*
X2514600Y1395402D03*
G01*
X2514600Y1195397D03*
D46*
G01*
X2754302Y1689100D03*
G01*
X2554297Y1689100D03*
G01*
X1916097Y1383106D03*
G01*
X2116101Y1383106D03*
D45*
G01*
X1571599Y978303D03*
G01*
X1571599Y1178308D03*
G36*
X2049145Y-1941880D02*
G01*
X2048741Y-1941865D01*
X2048106Y-1941814D01*
X2047674Y-1941761D01*
X2047064Y-1941659D01*
X2046295Y-1941466D01*
X2045685Y-1941263D01*
X2045266Y-1941103D01*
X2044682Y-1940849D01*
X2044031Y-1940511D01*
X2043498Y-1940181D01*
X2043125Y-1939925D01*
X2042617Y-1939544D01*
X2042073Y-1939071D01*
X2041616Y-1938614D01*
X2041143Y-1938070D01*
X2040762Y-1937562D01*
X2040506Y-1937189D01*
X2040176Y-1936656D01*
X2039838Y-1936005D01*
X2039584Y-1935421D01*
X2039365Y-1934819D01*
X2039188Y-1934210D01*
X2039091Y-1933823D01*
X2038964Y-1933214D01*
X2038873Y-1932581D01*
X2038822Y-1931946D01*
X2038807Y-1931543D01*
X2038807Y-1907031D01*
X2038824Y-1906610D01*
X2038875Y-1906000D01*
X2038957Y-1905426D01*
X2039084Y-1904791D01*
X2039188Y-1904364D01*
X2039365Y-1903755D01*
X2039584Y-1903153D01*
X2039838Y-1902569D01*
X2040176Y-1901918D01*
X2040506Y-1901385D01*
X2040762Y-1901012D01*
X2041143Y-1900504D01*
X2041720Y-1899859D01*
X2042177Y-1899427D01*
X2042492Y-1899152D01*
X2043000Y-1898746D01*
X2043498Y-1898393D01*
X2044031Y-1898063D01*
X2044682Y-1897725D01*
X2045266Y-1897471D01*
X2045868Y-1897253D01*
X2046477Y-1897075D01*
X2046864Y-1896978D01*
X2047473Y-1896851D01*
X2048306Y-1896750D01*
X2048941Y-1896724D01*
X2049145Y-1896719D01*
X2108657Y-1896719D01*
X2108860Y-1896724D01*
X2109495Y-1896750D01*
X2110328Y-1896851D01*
X2110938Y-1896978D01*
X2111324Y-1897075D01*
X2111933Y-1897253D01*
X2112535Y-1897471D01*
X2113119Y-1897725D01*
X2113770Y-1898063D01*
X2114303Y-1898393D01*
X2114801Y-1898746D01*
X2115309Y-1899152D01*
X2115728Y-1899528D01*
X2116160Y-1899960D01*
X2116536Y-1900379D01*
X2116942Y-1900887D01*
X2117295Y-1901385D01*
X2117625Y-1901918D01*
X2117963Y-1902569D01*
X2118217Y-1903153D01*
X2118436Y-1903755D01*
X2118613Y-1904364D01*
X2118718Y-1904791D01*
X2118845Y-1905426D01*
X2118939Y-1906211D01*
X2118964Y-1906821D01*
X2118969Y-1907031D01*
X2118969Y-1931543D01*
X2118964Y-1931746D01*
X2118939Y-1932381D01*
X2118837Y-1933214D01*
X2118710Y-1933823D01*
X2118613Y-1934210D01*
X2118436Y-1934819D01*
X2118217Y-1935421D01*
X2117963Y-1936005D01*
X2117625Y-1936656D01*
X2117295Y-1937189D01*
X2116942Y-1937687D01*
X2116536Y-1938195D01*
X2116261Y-1938510D01*
X2115830Y-1938967D01*
X2115184Y-1939544D01*
X2114677Y-1939925D01*
X2114303Y-1940181D01*
X2113770Y-1940511D01*
X2113119Y-1940849D01*
X2112535Y-1941103D01*
X2112116Y-1941263D01*
X2111507Y-1941466D01*
X2110737Y-1941659D01*
X2110127Y-1941761D01*
X2109696Y-1941814D01*
X2109061Y-1941865D01*
X2108657Y-1941880D01*
G37*
G36*
X2049145Y-1991868D02*
G01*
X2048941Y-1991862D01*
X2048306Y-1991837D01*
X2047473Y-1991735D01*
X2046864Y-1991608D01*
X2046477Y-1991512D01*
X2045868Y-1991334D01*
X2045266Y-1991116D01*
X2044682Y-1990862D01*
X2044031Y-1990524D01*
X2043498Y-1990194D01*
X2043000Y-1989841D01*
X2042492Y-1989434D01*
X2042177Y-1989160D01*
X2041720Y-1988728D01*
X2041143Y-1988083D01*
X2040762Y-1987575D01*
X2040506Y-1987202D01*
X2040176Y-1986668D01*
X2039838Y-1986018D01*
X2039584Y-1985434D01*
X2039365Y-1984832D01*
X2039188Y-1984222D01*
X2039084Y-1983795D01*
X2038957Y-1983160D01*
X2038875Y-1982586D01*
X2038824Y-1981977D01*
X2038807Y-1981555D01*
X2038807Y-1957044D01*
X2038822Y-1956640D01*
X2038873Y-1956005D01*
X2038964Y-1955373D01*
X2039091Y-1954763D01*
X2039188Y-1954377D01*
X2039365Y-1953768D01*
X2039584Y-1953166D01*
X2039838Y-1952581D01*
X2040176Y-1951931D01*
X2040506Y-1951398D01*
X2040762Y-1951024D01*
X2041143Y-1950516D01*
X2041616Y-1949973D01*
X2042073Y-1949516D01*
X2042617Y-1949043D01*
X2043125Y-1948662D01*
X2043498Y-1948406D01*
X2044031Y-1948075D01*
X2044682Y-1947738D01*
X2045266Y-1947484D01*
X2045685Y-1947324D01*
X2046295Y-1947120D01*
X2047064Y-1946927D01*
X2047674Y-1946826D01*
X2048106Y-1946772D01*
X2048741Y-1946722D01*
X2049145Y-1946706D01*
X2108657Y-1946706D01*
X2109061Y-1946722D01*
X2109696Y-1946772D01*
X2110127Y-1946826D01*
X2110737Y-1946927D01*
X2111507Y-1947120D01*
X2112116Y-1947324D01*
X2112535Y-1947484D01*
X2113119Y-1947738D01*
X2113770Y-1948075D01*
X2114303Y-1948406D01*
X2114677Y-1948662D01*
X2115184Y-1949043D01*
X2115830Y-1949620D01*
X2116261Y-1950077D01*
X2116536Y-1950392D01*
X2116942Y-1950900D01*
X2117295Y-1951398D01*
X2117625Y-1951931D01*
X2117963Y-1952581D01*
X2118217Y-1953166D01*
X2118436Y-1953768D01*
X2118613Y-1954377D01*
X2118710Y-1954763D01*
X2118837Y-1955373D01*
X2118939Y-1956206D01*
X2118964Y-1956841D01*
X2118969Y-1957044D01*
X2118969Y-1981555D01*
X2118964Y-1981766D01*
X2118939Y-1982376D01*
X2118845Y-1983160D01*
X2118718Y-1983795D01*
X2118613Y-1984222D01*
X2118436Y-1984832D01*
X2118217Y-1985434D01*
X2117963Y-1986018D01*
X2117625Y-1986668D01*
X2117295Y-1987202D01*
X2116942Y-1987699D01*
X2116536Y-1988207D01*
X2116160Y-1988626D01*
X2115728Y-1989058D01*
X2115309Y-1989434D01*
X2114801Y-1989841D01*
X2114303Y-1990194D01*
X2113770Y-1990524D01*
X2113119Y-1990862D01*
X2112535Y-1991116D01*
X2111933Y-1991334D01*
X2111324Y-1991512D01*
X2110938Y-1991608D01*
X2110328Y-1991735D01*
X2109495Y-1991837D01*
X2108860Y-1991862D01*
X2108657Y-1991868D01*
G37*
G36*
X2049145Y-2041880D02*
G01*
X2048741Y-2041865D01*
X2048106Y-2041814D01*
X2047674Y-2041761D01*
X2047064Y-2041659D01*
X2046295Y-2041466D01*
X2045685Y-2041263D01*
X2045266Y-2041103D01*
X2044682Y-2040849D01*
X2044031Y-2040511D01*
X2043498Y-2040181D01*
X2043125Y-2039924D01*
X2042617Y-2039543D01*
X2042073Y-2039071D01*
X2041616Y-2038614D01*
X2041143Y-2038070D01*
X2040762Y-2037562D01*
X2040506Y-2037189D01*
X2040176Y-2036655D01*
X2039838Y-2036005D01*
X2039584Y-2035421D01*
X2039365Y-2034819D01*
X2039188Y-2034209D01*
X2039091Y-2033823D01*
X2038964Y-2033214D01*
X2038873Y-2032581D01*
X2038822Y-2031946D01*
X2038807Y-2031542D01*
X2038807Y-2007031D01*
X2038824Y-2006610D01*
X2038875Y-2006000D01*
X2038957Y-2005426D01*
X2039084Y-2004791D01*
X2039188Y-2004364D01*
X2039365Y-2003755D01*
X2039584Y-2003153D01*
X2039838Y-2002569D01*
X2040176Y-2001918D01*
X2040506Y-2001385D01*
X2040762Y-2001012D01*
X2041143Y-2000504D01*
X2041720Y-1999858D01*
X2042177Y-1999427D01*
X2042492Y-1999152D01*
X2043000Y-1998746D01*
X2043498Y-1998393D01*
X2044031Y-1998063D01*
X2044682Y-1997725D01*
X2045266Y-1997471D01*
X2045868Y-1997252D01*
X2046477Y-1997075D01*
X2046864Y-1996978D01*
X2047473Y-1996851D01*
X2048306Y-1996749D01*
X2048941Y-1996724D01*
X2049145Y-1996719D01*
X2108657Y-1996719D01*
X2108860Y-1996724D01*
X2109495Y-1996749D01*
X2110328Y-1996851D01*
X2110938Y-1996978D01*
X2111324Y-1997075D01*
X2111933Y-1997252D01*
X2112535Y-1997471D01*
X2113119Y-1997725D01*
X2113770Y-1998063D01*
X2114303Y-1998393D01*
X2114801Y-1998746D01*
X2115309Y-1999152D01*
X2115728Y-1999528D01*
X2116160Y-1999960D01*
X2116536Y-2000379D01*
X2116942Y-2000887D01*
X2117295Y-2001385D01*
X2117625Y-2001918D01*
X2117963Y-2002569D01*
X2118217Y-2003153D01*
X2118436Y-2003755D01*
X2118613Y-2004364D01*
X2118718Y-2004791D01*
X2118845Y-2005426D01*
X2118939Y-2006211D01*
X2118964Y-2006820D01*
X2118969Y-2007031D01*
X2118969Y-2031542D01*
X2118964Y-2031746D01*
X2118939Y-2032380D01*
X2118837Y-2033214D01*
X2118710Y-2033823D01*
X2118613Y-2034209D01*
X2118436Y-2034819D01*
X2118217Y-2035421D01*
X2117963Y-2036005D01*
X2117625Y-2036655D01*
X2117295Y-2037189D01*
X2116942Y-2037687D01*
X2116536Y-2038195D01*
X2116261Y-2038510D01*
X2115830Y-2038967D01*
X2115184Y-2039543D01*
X2114677Y-2039924D01*
X2114303Y-2040181D01*
X2113770Y-2040511D01*
X2113119Y-2040849D01*
X2112535Y-2041103D01*
X2112116Y-2041263D01*
X2111507Y-2041466D01*
X2110737Y-2041659D01*
X2110127Y-2041761D01*
X2109696Y-2041814D01*
X2109061Y-2041865D01*
X2108657Y-2041880D01*
G37*
G36*
X2049145Y-1891868D02*
G01*
X2048941Y-1891863D01*
X2048306Y-1891837D01*
X2047473Y-1891736D01*
X2046864Y-1891609D01*
X2046477Y-1891512D01*
X2045868Y-1891334D01*
X2045266Y-1891116D01*
X2044682Y-1890862D01*
X2044031Y-1890524D01*
X2043498Y-1890194D01*
X2043000Y-1889841D01*
X2042492Y-1889434D01*
X2042177Y-1889160D01*
X2041720Y-1888728D01*
X2041143Y-1888083D01*
X2040762Y-1887575D01*
X2040506Y-1887202D01*
X2040176Y-1886668D01*
X2039838Y-1886018D01*
X2039584Y-1885434D01*
X2039365Y-1884832D01*
X2039188Y-1884222D01*
X2039084Y-1883796D01*
X2038957Y-1883161D01*
X2038875Y-1882587D01*
X2038824Y-1881977D01*
X2038807Y-1881555D01*
X2038807Y-1857044D01*
X2038822Y-1856640D01*
X2038873Y-1856005D01*
X2038964Y-1855373D01*
X2039091Y-1854763D01*
X2039188Y-1854377D01*
X2039365Y-1853768D01*
X2039584Y-1853166D01*
X2039838Y-1852582D01*
X2040176Y-1851931D01*
X2040506Y-1851398D01*
X2040762Y-1851025D01*
X2041143Y-1850517D01*
X2041616Y-1849973D01*
X2042073Y-1849516D01*
X2042617Y-1849043D01*
X2043125Y-1848662D01*
X2043498Y-1848406D01*
X2044031Y-1848076D01*
X2044682Y-1847738D01*
X2045266Y-1847484D01*
X2045685Y-1847324D01*
X2046295Y-1847121D01*
X2047064Y-1846927D01*
X2047674Y-1846826D01*
X2048106Y-1846773D01*
X2048741Y-1846722D01*
X2049145Y-1846706D01*
X2108657Y-1846706D01*
X2109061Y-1846722D01*
X2109696Y-1846773D01*
X2110127Y-1846826D01*
X2110737Y-1846927D01*
X2111507Y-1847121D01*
X2112116Y-1847324D01*
X2112535Y-1847484D01*
X2113119Y-1847738D01*
X2113770Y-1848076D01*
X2114303Y-1848406D01*
X2114677Y-1848662D01*
X2115184Y-1849043D01*
X2115830Y-1849620D01*
X2116261Y-1850077D01*
X2116536Y-1850392D01*
X2116942Y-1850900D01*
X2117295Y-1851398D01*
X2117625Y-1851931D01*
X2117963Y-1852582D01*
X2118217Y-1853166D01*
X2118436Y-1853768D01*
X2118613Y-1854377D01*
X2118710Y-1854763D01*
X2118837Y-1855373D01*
X2118939Y-1856206D01*
X2118964Y-1856841D01*
X2118969Y-1857044D01*
X2118969Y-1881555D01*
X2118964Y-1881766D01*
X2118939Y-1882376D01*
X2118845Y-1883161D01*
X2118718Y-1883796D01*
X2118613Y-1884222D01*
X2118436Y-1884832D01*
X2118217Y-1885434D01*
X2117963Y-1886018D01*
X2117625Y-1886668D01*
X2117295Y-1887202D01*
X2116942Y-1887700D01*
X2116536Y-1888208D01*
X2116160Y-1888627D01*
X2115728Y-1889058D01*
X2115309Y-1889434D01*
X2114801Y-1889841D01*
X2114303Y-1890194D01*
X2113770Y-1890524D01*
X2113119Y-1890862D01*
X2112535Y-1891116D01*
X2111933Y-1891334D01*
X2111324Y-1891512D01*
X2110938Y-1891609D01*
X2110328Y-1891736D01*
X2109495Y-1891837D01*
X2108860Y-1891863D01*
X2108657Y-1891868D01*
G37*
G36*
X2109139Y-2124379D02*
G01*
X2108735Y-2124364D01*
X2108100Y-2124313D01*
X2107669Y-2124260D01*
X2107059Y-2124158D01*
X2106289Y-2123965D01*
X2105680Y-2123762D01*
X2105261Y-2123602D01*
X2104677Y-2123348D01*
X2104026Y-2123010D01*
X2103493Y-2122680D01*
X2103120Y-2122423D01*
X2102611Y-2122043D01*
X2101966Y-2121466D01*
X2101535Y-2121009D01*
X2101260Y-2120694D01*
X2100854Y-2120186D01*
X2100501Y-2119688D01*
X2100171Y-2119155D01*
X2099833Y-2118504D01*
X2099579Y-2117920D01*
X2099378Y-2117374D01*
X2099200Y-2116790D01*
X2099078Y-2116307D01*
X2098951Y-2115672D01*
X2098857Y-2114880D01*
X2098832Y-2114245D01*
X2098827Y-2114042D01*
X2098827Y-2054555D01*
X2098832Y-2054352D01*
X2098857Y-2053717D01*
X2098951Y-2052924D01*
X2099078Y-2052289D01*
X2099182Y-2051862D01*
X2099360Y-2051253D01*
X2099579Y-2050651D01*
X2099833Y-2050067D01*
X2100171Y-2049416D01*
X2100501Y-2048883D01*
X2100854Y-2048385D01*
X2101260Y-2047877D01*
X2101636Y-2047458D01*
X2102068Y-2047026D01*
X2102487Y-2046650D01*
X2102995Y-2046244D01*
X2103648Y-2045802D01*
X2104181Y-2045497D01*
X2104509Y-2045324D01*
X2105093Y-2045045D01*
X2105863Y-2044750D01*
X2106472Y-2044572D01*
X2106858Y-2044476D01*
X2107468Y-2044349D01*
X2108301Y-2044247D01*
X2108936Y-2044222D01*
X2109139Y-2044217D01*
X2133650Y-2044217D01*
X2133854Y-2044222D01*
X2134488Y-2044247D01*
X2135322Y-2044349D01*
X2135931Y-2044476D01*
X2136317Y-2044572D01*
X2136927Y-2044750D01*
X2137697Y-2045045D01*
X2138281Y-2045324D01*
X2138608Y-2045497D01*
X2139142Y-2045802D01*
X2139795Y-2046244D01*
X2140303Y-2046650D01*
X2140618Y-2046925D01*
X2141075Y-2047356D01*
X2141651Y-2048002D01*
X2142032Y-2048510D01*
X2142289Y-2048883D01*
X2142619Y-2049416D01*
X2142957Y-2050067D01*
X2143211Y-2050651D01*
X2143371Y-2051070D01*
X2143574Y-2051679D01*
X2143772Y-2052482D01*
X2143874Y-2053117D01*
X2143922Y-2053516D01*
X2143973Y-2054151D01*
X2143988Y-2054555D01*
X2143988Y-2114042D01*
X2143973Y-2114445D01*
X2143922Y-2115080D01*
X2143874Y-2115479D01*
X2143772Y-2116114D01*
X2143742Y-2116289D01*
X2143704Y-2116465D01*
X2143660Y-2116637D01*
X2143610Y-2116810D01*
X2143554Y-2116980D01*
X2143351Y-2117564D01*
X2143211Y-2117920D01*
X2142957Y-2118504D01*
X2142619Y-2119155D01*
X2142289Y-2119688D01*
X2142032Y-2120061D01*
X2141651Y-2120569D01*
X2141179Y-2121113D01*
X2140722Y-2121570D01*
X2140178Y-2122043D01*
X2139670Y-2122423D01*
X2139297Y-2122680D01*
X2138763Y-2123010D01*
X2138113Y-2123348D01*
X2137529Y-2123602D01*
X2137110Y-2123762D01*
X2136500Y-2123965D01*
X2135731Y-2124158D01*
X2135121Y-2124260D01*
X2134689Y-2124313D01*
X2134054Y-2124364D01*
X2133650Y-2124379D01*
G37*
G36*
X2159152Y-2124379D02*
G01*
X2158748Y-2124364D01*
X2158113Y-2124313D01*
X2157714Y-2124265D01*
X2157079Y-2124163D01*
X2156904Y-2124133D01*
X2156729Y-2124095D01*
X2156556Y-2124052D01*
X2156383Y-2124001D01*
X2156213Y-2123945D01*
X2155629Y-2123742D01*
X2155273Y-2123602D01*
X2154689Y-2123348D01*
X2154130Y-2123064D01*
X2153572Y-2122733D01*
X2153008Y-2122347D01*
X2152525Y-2121966D01*
X2152081Y-2121570D01*
X2151623Y-2121113D01*
X2151151Y-2120569D01*
X2150770Y-2120061D01*
X2150513Y-2119688D01*
X2150183Y-2119155D01*
X2149845Y-2118504D01*
X2149591Y-2117920D01*
X2149452Y-2117564D01*
X2149248Y-2116980D01*
X2149193Y-2116810D01*
X2149142Y-2116637D01*
X2149099Y-2116465D01*
X2149060Y-2116289D01*
X2149030Y-2116114D01*
X2148928Y-2115479D01*
X2148880Y-2115080D01*
X2148829Y-2114445D01*
X2148814Y-2114042D01*
X2148814Y-2054555D01*
X2148829Y-2054151D01*
X2148880Y-2053516D01*
X2148928Y-2053117D01*
X2149030Y-2052482D01*
X2149228Y-2051679D01*
X2149431Y-2051070D01*
X2149591Y-2050651D01*
X2149845Y-2050067D01*
X2150183Y-2049416D01*
X2150513Y-2048883D01*
X2150770Y-2048510D01*
X2151151Y-2048002D01*
X2151727Y-2047356D01*
X2152185Y-2046925D01*
X2152401Y-2046731D01*
X2152883Y-2046325D01*
X2153041Y-2046198D01*
X2153203Y-2046076D01*
X2153373Y-2045962D01*
X2153546Y-2045853D01*
X2153721Y-2045751D01*
X2154280Y-2045446D01*
X2154521Y-2045324D01*
X2155106Y-2045045D01*
X2155819Y-2044768D01*
X2156404Y-2044590D01*
X2156886Y-2044468D01*
X2157521Y-2044341D01*
X2158314Y-2044247D01*
X2158949Y-2044222D01*
X2159152Y-2044217D01*
X2183637Y-2044217D01*
X2183841Y-2044222D01*
X2184476Y-2044247D01*
X2185268Y-2044341D01*
X2185903Y-2044468D01*
X2186330Y-2044572D01*
X2186939Y-2044750D01*
X2187709Y-2045045D01*
X2188293Y-2045324D01*
X2188621Y-2045497D01*
X2189154Y-2045802D01*
X2189807Y-2046244D01*
X2190315Y-2046650D01*
X2190734Y-2047026D01*
X2191166Y-2047458D01*
X2191542Y-2047877D01*
X2191948Y-2048385D01*
X2192390Y-2049038D01*
X2192695Y-2049571D01*
X2192868Y-2049899D01*
X2193147Y-2050483D01*
X2193442Y-2051253D01*
X2193620Y-2051862D01*
X2193724Y-2052289D01*
X2193851Y-2052924D01*
X2193945Y-2053717D01*
X2193970Y-2054352D01*
X2193975Y-2054555D01*
X2193975Y-2114042D01*
X2193970Y-2114245D01*
X2193945Y-2114880D01*
X2193851Y-2115672D01*
X2193724Y-2116307D01*
X2193602Y-2116790D01*
X2193424Y-2117374D01*
X2193147Y-2118088D01*
X2192868Y-2118672D01*
X2192695Y-2119000D01*
X2192390Y-2119533D01*
X2191948Y-2120186D01*
X2191542Y-2120694D01*
X2191268Y-2121009D01*
X2190836Y-2121466D01*
X2190191Y-2122043D01*
X2189683Y-2122423D01*
X2189309Y-2122680D01*
X2188776Y-2123010D01*
X2188126Y-2123348D01*
X2187541Y-2123602D01*
X2187122Y-2123762D01*
X2186513Y-2123965D01*
X2185710Y-2124163D01*
X2185075Y-2124265D01*
X2184676Y-2124313D01*
X2184041Y-2124364D01*
X2183637Y-2124379D01*
G37*
G36*
X2109139Y-1844370D02*
G01*
X2108936Y-1844365D01*
X2108301Y-1844339D01*
X2107468Y-1844238D01*
X2106858Y-1844111D01*
X2106472Y-1844014D01*
X2105863Y-1843836D01*
X2105093Y-1843542D01*
X2104509Y-1843262D01*
X2104181Y-1843090D01*
X2103648Y-1842785D01*
X2102995Y-1842343D01*
X2102487Y-1841936D01*
X2102068Y-1841560D01*
X2101636Y-1841129D01*
X2101260Y-1840710D01*
X2100854Y-1840202D01*
X2100501Y-1839704D01*
X2100171Y-1839170D01*
X2099833Y-1838520D01*
X2099579Y-1837936D01*
X2099360Y-1837334D01*
X2099182Y-1836724D01*
X2099078Y-1836298D01*
X2098951Y-1835663D01*
X2098857Y-1834870D01*
X2098832Y-1834235D01*
X2098827Y-1834032D01*
X2098827Y-1774545D01*
X2098832Y-1774342D01*
X2098857Y-1773707D01*
X2098951Y-1772914D01*
X2099078Y-1772279D01*
X2099200Y-1771797D01*
X2099378Y-1771213D01*
X2099579Y-1770667D01*
X2099833Y-1770082D01*
X2100171Y-1769432D01*
X2100501Y-1768899D01*
X2100854Y-1768401D01*
X2101260Y-1767893D01*
X2101535Y-1767578D01*
X2101966Y-1767121D01*
X2102611Y-1766544D01*
X2103120Y-1766163D01*
X2103493Y-1765907D01*
X2104026Y-1765576D01*
X2104677Y-1765239D01*
X2105261Y-1764985D01*
X2105680Y-1764825D01*
X2106289Y-1764621D01*
X2107059Y-1764428D01*
X2107669Y-1764327D01*
X2108100Y-1764273D01*
X2108735Y-1764223D01*
X2109139Y-1764207D01*
X2133650Y-1764207D01*
X2134054Y-1764223D01*
X2134689Y-1764273D01*
X2135121Y-1764327D01*
X2135731Y-1764428D01*
X2136500Y-1764621D01*
X2137110Y-1764825D01*
X2137529Y-1764985D01*
X2138113Y-1765239D01*
X2138763Y-1765576D01*
X2139297Y-1765907D01*
X2139670Y-1766163D01*
X2140178Y-1766544D01*
X2140722Y-1767017D01*
X2141179Y-1767474D01*
X2141651Y-1768017D01*
X2142032Y-1768525D01*
X2142289Y-1768899D01*
X2142619Y-1769432D01*
X2142957Y-1770082D01*
X2143211Y-1770667D01*
X2143351Y-1771022D01*
X2143554Y-1771606D01*
X2143610Y-1771777D01*
X2143660Y-1771949D01*
X2143704Y-1772122D01*
X2143742Y-1772297D01*
X2143772Y-1772472D01*
X2143874Y-1773107D01*
X2143922Y-1773506D01*
X2143973Y-1774141D01*
X2143988Y-1774545D01*
X2143988Y-1834032D01*
X2143973Y-1834436D01*
X2143922Y-1835071D01*
X2143874Y-1835470D01*
X2143772Y-1836105D01*
X2143574Y-1836907D01*
X2143371Y-1837517D01*
X2143211Y-1837936D01*
X2142957Y-1838520D01*
X2142619Y-1839170D01*
X2142289Y-1839704D01*
X2142032Y-1840077D01*
X2141651Y-1840585D01*
X2141075Y-1841230D01*
X2140618Y-1841662D01*
X2140303Y-1841936D01*
X2139795Y-1842343D01*
X2139142Y-1842785D01*
X2138608Y-1843090D01*
X2138281Y-1843262D01*
X2137697Y-1843542D01*
X2136927Y-1843836D01*
X2136317Y-1844014D01*
X2135931Y-1844111D01*
X2135322Y-1844238D01*
X2134488Y-1844339D01*
X2133854Y-1844365D01*
X2133650Y-1844370D01*
G37*
G36*
X2159152Y-1844370D02*
G01*
X2158949Y-1844365D01*
X2158314Y-1844339D01*
X2157521Y-1844245D01*
X2156886Y-1844118D01*
X2156404Y-1843996D01*
X2155819Y-1843819D01*
X2155106Y-1843542D01*
X2154521Y-1843262D01*
X2154280Y-1843140D01*
X2153721Y-1842836D01*
X2153546Y-1842734D01*
X2153373Y-1842625D01*
X2153203Y-1842510D01*
X2153041Y-1842388D01*
X2152883Y-1842262D01*
X2152401Y-1841855D01*
X2152185Y-1841662D01*
X2151727Y-1841230D01*
X2151151Y-1840585D01*
X2150770Y-1840077D01*
X2150513Y-1839704D01*
X2150183Y-1839170D01*
X2149845Y-1838520D01*
X2149591Y-1837936D01*
X2149431Y-1837517D01*
X2149228Y-1836907D01*
X2149030Y-1836105D01*
X2148928Y-1835470D01*
X2148880Y-1835071D01*
X2148829Y-1834436D01*
X2148814Y-1834032D01*
X2148814Y-1774545D01*
X2148829Y-1774141D01*
X2148880Y-1773506D01*
X2148928Y-1773107D01*
X2149030Y-1772472D01*
X2149060Y-1772297D01*
X2149099Y-1772122D01*
X2149142Y-1771949D01*
X2149193Y-1771777D01*
X2149248Y-1771606D01*
X2149452Y-1771022D01*
X2149591Y-1770667D01*
X2149845Y-1770082D01*
X2150183Y-1769432D01*
X2150513Y-1768899D01*
X2150770Y-1768525D01*
X2151151Y-1768017D01*
X2151623Y-1767474D01*
X2152081Y-1767017D01*
X2152525Y-1766620D01*
X2153008Y-1766239D01*
X2153572Y-1765853D01*
X2154130Y-1765523D01*
X2154689Y-1765239D01*
X2155273Y-1764985D01*
X2155629Y-1764845D01*
X2156213Y-1764642D01*
X2156383Y-1764586D01*
X2156556Y-1764535D01*
X2156729Y-1764492D01*
X2156904Y-1764454D01*
X2157079Y-1764423D01*
X2157714Y-1764322D01*
X2158113Y-1764273D01*
X2158748Y-1764223D01*
X2159152Y-1764207D01*
X2183637Y-1764207D01*
X2184041Y-1764223D01*
X2184676Y-1764273D01*
X2185075Y-1764322D01*
X2185710Y-1764423D01*
X2186513Y-1764621D01*
X2187122Y-1764825D01*
X2187541Y-1764985D01*
X2188126Y-1765239D01*
X2188776Y-1765576D01*
X2189309Y-1765907D01*
X2189683Y-1766163D01*
X2190191Y-1766544D01*
X2190836Y-1767121D01*
X2191268Y-1767578D01*
X2191542Y-1767893D01*
X2191948Y-1768401D01*
X2192390Y-1769054D01*
X2192695Y-1769587D01*
X2192868Y-1769915D01*
X2193147Y-1770499D01*
X2193424Y-1771213D01*
X2193602Y-1771797D01*
X2193724Y-1772279D01*
X2193851Y-1772914D01*
X2193945Y-1773707D01*
X2193970Y-1774342D01*
X2193975Y-1774545D01*
X2193975Y-1834032D01*
X2193970Y-1834235D01*
X2193945Y-1834870D01*
X2193851Y-1835663D01*
X2193724Y-1836298D01*
X2193620Y-1836724D01*
X2193442Y-1837334D01*
X2193147Y-1838104D01*
X2192868Y-1838688D01*
X2192695Y-1839015D01*
X2192390Y-1839549D01*
X2191948Y-1840202D01*
X2191542Y-1840710D01*
X2191166Y-1841129D01*
X2190734Y-1841560D01*
X2190315Y-1841936D01*
X2189807Y-1842343D01*
X2189154Y-1842785D01*
X2188621Y-1843090D01*
X2188293Y-1843262D01*
X2187709Y-1843542D01*
X2186939Y-1843836D01*
X2186330Y-1844014D01*
X2185903Y-1844118D01*
X2185268Y-1844245D01*
X2184476Y-1844339D01*
X2183841Y-1844365D01*
X2183637Y-1844370D01*
G37*
G36*
X2209139Y-2124379D02*
G01*
X2208735Y-2124364D01*
X2208100Y-2124313D01*
X2207668Y-2124260D01*
X2207059Y-2124158D01*
X2206289Y-2123965D01*
X2205680Y-2123762D01*
X2205261Y-2123602D01*
X2204676Y-2123348D01*
X2204026Y-2123010D01*
X2203493Y-2122680D01*
X2203119Y-2122423D01*
X2202611Y-2122043D01*
X2201966Y-2121466D01*
X2201534Y-2121009D01*
X2201260Y-2120694D01*
X2200854Y-2120186D01*
X2200501Y-2119688D01*
X2200170Y-2119155D01*
X2199833Y-2118504D01*
X2199579Y-2117920D01*
X2199378Y-2117374D01*
X2199200Y-2116790D01*
X2199078Y-2116307D01*
X2198951Y-2115672D01*
X2198857Y-2114880D01*
X2198832Y-2114245D01*
X2198827Y-2114042D01*
X2198827Y-2054555D01*
X2198832Y-2054352D01*
X2198857Y-2053717D01*
X2198951Y-2052924D01*
X2199078Y-2052289D01*
X2199182Y-2051862D01*
X2199360Y-2051253D01*
X2199579Y-2050651D01*
X2199833Y-2050067D01*
X2200170Y-2049416D01*
X2200501Y-2048883D01*
X2200854Y-2048385D01*
X2201260Y-2047877D01*
X2201636Y-2047458D01*
X2202068Y-2047026D01*
X2202487Y-2046650D01*
X2202995Y-2046244D01*
X2203648Y-2045802D01*
X2204181Y-2045497D01*
X2204509Y-2045324D01*
X2205093Y-2045045D01*
X2205862Y-2044750D01*
X2206472Y-2044572D01*
X2206858Y-2044476D01*
X2207468Y-2044349D01*
X2208301Y-2044247D01*
X2208936Y-2044222D01*
X2209139Y-2044217D01*
X2283637Y-2044217D01*
X2283840Y-2044222D01*
X2284475Y-2044247D01*
X2285268Y-2044341D01*
X2285903Y-2044468D01*
X2286330Y-2044572D01*
X2286939Y-2044750D01*
X2287709Y-2045045D01*
X2288293Y-2045324D01*
X2288621Y-2045497D01*
X2289154Y-2045802D01*
X2289807Y-2046244D01*
X2290315Y-2046650D01*
X2290734Y-2047026D01*
X2291166Y-2047458D01*
X2291542Y-2047877D01*
X2291948Y-2048385D01*
X2292390Y-2049038D01*
X2292695Y-2049571D01*
X2292868Y-2049899D01*
X2293147Y-2050483D01*
X2293442Y-2051253D01*
X2293620Y-2051862D01*
X2293724Y-2052289D01*
X2293851Y-2052924D01*
X2293945Y-2053717D01*
X2293970Y-2054352D01*
X2293975Y-2054555D01*
X2293975Y-2114042D01*
X2293970Y-2114245D01*
X2293945Y-2114880D01*
X2293851Y-2115672D01*
X2293724Y-2116307D01*
X2293602Y-2116790D01*
X2293424Y-2117374D01*
X2293147Y-2118088D01*
X2292868Y-2118672D01*
X2292695Y-2119000D01*
X2292390Y-2119533D01*
X2291948Y-2120186D01*
X2291542Y-2120694D01*
X2291267Y-2121009D01*
X2290836Y-2121466D01*
X2290190Y-2122043D01*
X2289682Y-2122423D01*
X2289309Y-2122680D01*
X2288776Y-2123010D01*
X2288125Y-2123348D01*
X2287541Y-2123602D01*
X2287122Y-2123762D01*
X2286513Y-2123965D01*
X2285710Y-2124163D01*
X2285075Y-2124265D01*
X2284676Y-2124313D01*
X2284041Y-2124364D01*
X2283637Y-2124379D01*
G37*
G36*
X2209139Y-1844370D02*
G01*
X2208936Y-1844365D01*
X2208301Y-1844339D01*
X2207468Y-1844238D01*
X2206858Y-1844111D01*
X2206472Y-1844014D01*
X2205862Y-1843836D01*
X2205093Y-1843542D01*
X2204509Y-1843262D01*
X2204181Y-1843090D01*
X2203648Y-1842785D01*
X2202995Y-1842343D01*
X2202487Y-1841936D01*
X2202068Y-1841560D01*
X2201636Y-1841129D01*
X2201260Y-1840710D01*
X2200854Y-1840202D01*
X2200501Y-1839704D01*
X2200170Y-1839170D01*
X2199833Y-1838520D01*
X2199579Y-1837936D01*
X2199360Y-1837334D01*
X2199182Y-1836724D01*
X2199078Y-1836298D01*
X2198951Y-1835663D01*
X2198857Y-1834870D01*
X2198832Y-1834235D01*
X2198827Y-1834032D01*
X2198827Y-1774545D01*
X2198832Y-1774342D01*
X2198857Y-1773707D01*
X2198951Y-1772914D01*
X2199078Y-1772279D01*
X2199200Y-1771797D01*
X2199378Y-1771213D01*
X2199579Y-1770667D01*
X2199833Y-1770082D01*
X2200170Y-1769432D01*
X2200501Y-1768899D01*
X2200854Y-1768401D01*
X2201260Y-1767893D01*
X2201534Y-1767578D01*
X2201966Y-1767121D01*
X2202611Y-1766544D01*
X2203119Y-1766163D01*
X2203493Y-1765907D01*
X2204026Y-1765576D01*
X2204676Y-1765239D01*
X2205261Y-1764985D01*
X2205680Y-1764825D01*
X2206289Y-1764621D01*
X2207059Y-1764428D01*
X2207668Y-1764327D01*
X2208100Y-1764273D01*
X2208735Y-1764223D01*
X2209139Y-1764207D01*
X2283637Y-1764207D01*
X2284041Y-1764223D01*
X2284676Y-1764273D01*
X2285075Y-1764322D01*
X2285710Y-1764423D01*
X2286513Y-1764621D01*
X2287122Y-1764825D01*
X2287541Y-1764985D01*
X2288125Y-1765239D01*
X2288776Y-1765576D01*
X2289309Y-1765907D01*
X2289682Y-1766163D01*
X2290190Y-1766544D01*
X2290836Y-1767121D01*
X2291267Y-1767578D01*
X2291542Y-1767893D01*
X2291948Y-1768401D01*
X2292390Y-1769054D01*
X2292695Y-1769587D01*
X2292868Y-1769915D01*
X2293147Y-1770499D01*
X2293424Y-1771213D01*
X2293602Y-1771797D01*
X2293724Y-1772279D01*
X2293851Y-1772914D01*
X2293945Y-1773707D01*
X2293970Y-1774342D01*
X2293975Y-1774545D01*
X2293975Y-1834032D01*
X2293970Y-1834235D01*
X2293945Y-1834870D01*
X2293851Y-1835663D01*
X2293724Y-1836298D01*
X2293620Y-1836724D01*
X2293442Y-1837334D01*
X2293147Y-1838104D01*
X2292868Y-1838688D01*
X2292695Y-1839015D01*
X2292390Y-1839549D01*
X2291948Y-1840202D01*
X2291542Y-1840710D01*
X2291166Y-1841129D01*
X2290734Y-1841560D01*
X2290315Y-1841936D01*
X2289807Y-1842343D01*
X2289154Y-1842785D01*
X2288621Y-1843090D01*
X2288293Y-1843262D01*
X2287709Y-1843542D01*
X2286939Y-1843836D01*
X2286330Y-1844014D01*
X2285903Y-1844118D01*
X2285268Y-1844245D01*
X2284475Y-1844339D01*
X2283840Y-1844365D01*
X2283637Y-1844370D01*
G37*
G36*
X2169312Y-1966874D02*
G01*
X2168908Y-1966859D01*
X2168273Y-1966808D01*
X2167905Y-1966765D01*
X2167244Y-1966663D01*
X2166411Y-1966460D01*
X2165802Y-1966257D01*
X2165454Y-1966127D01*
X2164844Y-1965873D01*
X2164069Y-1965469D01*
X2163511Y-1965114D01*
X2163066Y-1964796D01*
X2162558Y-1964390D01*
X2162139Y-1964014D01*
X2161682Y-1963557D01*
X2161306Y-1963138D01*
X2160899Y-1962630D01*
X2160582Y-1962185D01*
X2160226Y-1961626D01*
X2159822Y-1960852D01*
X2159568Y-1960242D01*
X2159439Y-1959894D01*
X2159236Y-1959284D01*
X2159066Y-1958639D01*
X2158939Y-1957979D01*
X2158850Y-1957214D01*
X2158824Y-1956554D01*
X2158822Y-1956358D01*
X2158822Y-1932228D01*
X2158824Y-1932033D01*
X2158850Y-1931372D01*
X2158939Y-1930608D01*
X2159066Y-1929947D01*
X2159236Y-1929302D01*
X2159439Y-1928693D01*
X2159568Y-1928345D01*
X2159822Y-1927735D01*
X2160226Y-1926960D01*
X2160582Y-1926402D01*
X2160899Y-1925957D01*
X2161306Y-1925449D01*
X2161682Y-1925030D01*
X2162139Y-1924573D01*
X2162558Y-1924197D01*
X2163066Y-1923790D01*
X2163511Y-1923473D01*
X2164069Y-1923117D01*
X2164844Y-1922713D01*
X2165454Y-1922459D01*
X2165802Y-1922330D01*
X2166411Y-1922127D01*
X2167244Y-1921924D01*
X2167905Y-1921822D01*
X2168273Y-1921779D01*
X2168908Y-1921728D01*
X2169312Y-1921713D01*
X2338476Y-1921713D01*
X2338865Y-1921728D01*
X2339525Y-1921779D01*
X2339939Y-1921827D01*
X2340574Y-1921929D01*
X2341321Y-1922106D01*
X2341956Y-1922310D01*
X2342431Y-1922490D01*
X2343015Y-1922744D01*
X2343718Y-1923117D01*
X2344277Y-1923473D01*
X2344628Y-1923717D01*
X2345161Y-1924123D01*
X2345674Y-1924573D01*
X2346131Y-1925030D01*
X2346507Y-1925449D01*
X2346914Y-1925957D01*
X2347320Y-1926546D01*
X2347650Y-1927105D01*
X2347894Y-1927572D01*
X2348174Y-1928182D01*
X2348433Y-1928876D01*
X2348611Y-1929485D01*
X2348722Y-1929947D01*
X2348849Y-1930608D01*
X2348938Y-1931372D01*
X2348964Y-1932033D01*
X2348966Y-1932228D01*
X2348966Y-1956358D01*
X2348964Y-1956554D01*
X2348938Y-1957214D01*
X2348849Y-1957979D01*
X2348722Y-1958639D01*
X2348611Y-1959102D01*
X2348433Y-1959711D01*
X2348174Y-1960405D01*
X2347894Y-1961014D01*
X2347650Y-1961481D01*
X2347320Y-1962040D01*
X2346914Y-1962630D01*
X2346507Y-1963138D01*
X2346131Y-1963557D01*
X2345674Y-1964014D01*
X2345161Y-1964463D01*
X2344628Y-1964870D01*
X2344277Y-1965114D01*
X2343718Y-1965469D01*
X2343015Y-1965843D01*
X2342431Y-1966097D01*
X2341956Y-1966277D01*
X2341321Y-1966480D01*
X2340574Y-1966658D01*
X2339939Y-1966760D01*
X2339525Y-1966808D01*
X2338865Y-1966859D01*
X2338476Y-1966874D01*
G37*
G36*
X2204313Y-2016861D02*
G01*
X2204110Y-2016856D01*
X2203475Y-2016831D01*
X2202718Y-2016744D01*
X2202058Y-2016617D01*
X2201595Y-2016505D01*
X2200986Y-2016328D01*
X2200292Y-2016069D01*
X2199683Y-2015789D01*
X2199215Y-2015545D01*
X2198657Y-2015215D01*
X2198067Y-2014809D01*
X2197559Y-2014402D01*
X2197140Y-2014026D01*
X2196683Y-2013569D01*
X2196233Y-2013056D01*
X2195827Y-2012523D01*
X2195583Y-2012172D01*
X2195228Y-2011613D01*
X2194854Y-2010910D01*
X2194600Y-2010326D01*
X2194420Y-2009851D01*
X2194217Y-2009216D01*
X2194074Y-2008662D01*
X2193947Y-2008027D01*
X2193851Y-2007227D01*
X2193825Y-2006566D01*
X2193823Y-2006371D01*
X2193823Y-1982215D01*
X2193825Y-1982020D01*
X2193851Y-1981360D01*
X2193947Y-1980559D01*
X2194074Y-1979924D01*
X2194217Y-1979371D01*
X2194420Y-1978736D01*
X2194600Y-1978261D01*
X2194854Y-1977677D01*
X2195228Y-1976973D01*
X2195583Y-1976414D01*
X2195827Y-1976064D01*
X2196233Y-1975530D01*
X2196683Y-1975017D01*
X2197140Y-1974560D01*
X2197559Y-1974184D01*
X2198067Y-1973778D01*
X2198657Y-1973371D01*
X2199215Y-1973041D01*
X2199683Y-1972797D01*
X2200292Y-1972518D01*
X2200986Y-1972259D01*
X2201595Y-1972081D01*
X2202058Y-1971969D01*
X2202718Y-1971842D01*
X2203475Y-1971756D01*
X2204110Y-1971730D01*
X2204313Y-1971725D01*
X2338476Y-1971725D01*
X2338671Y-1971728D01*
X2339332Y-1971753D01*
X2340132Y-1971850D01*
X2340767Y-1971977D01*
X2341140Y-1972066D01*
X2341775Y-1972243D01*
X2342598Y-1972553D01*
X2343183Y-1972833D01*
X2343574Y-1973041D01*
X2344132Y-1973371D01*
X2344628Y-1973704D01*
X2345161Y-1974110D01*
X2345674Y-1974560D01*
X2346131Y-1975017D01*
X2346581Y-1975530D01*
X2346987Y-1976064D01*
X2347320Y-1976559D01*
X2347650Y-1977118D01*
X2347859Y-1977509D01*
X2348138Y-1978093D01*
X2348448Y-1978916D01*
X2348626Y-1979551D01*
X2348715Y-1979924D01*
X2348842Y-1980559D01*
X2348925Y-1981166D01*
X2348976Y-1981827D01*
X2348991Y-1982215D01*
X2348991Y-2006371D01*
X2348976Y-2006760D01*
X2348925Y-2007420D01*
X2348842Y-2008027D01*
X2348715Y-2008662D01*
X2348626Y-2009035D01*
X2348448Y-2009670D01*
X2348138Y-2010493D01*
X2347859Y-2011078D01*
X2347650Y-2011469D01*
X2347320Y-2012027D01*
X2346987Y-2012523D01*
X2346581Y-2013056D01*
X2346131Y-2013569D01*
X2345674Y-2014026D01*
X2345161Y-2014476D01*
X2344628Y-2014882D01*
X2344132Y-2015215D01*
X2343574Y-2015545D01*
X2343183Y-2015754D01*
X2342598Y-2016033D01*
X2341775Y-2016343D01*
X2341140Y-2016521D01*
X2340767Y-2016610D01*
X2340132Y-2016737D01*
X2339332Y-2016833D01*
X2338671Y-2016859D01*
X2338476Y-2016861D01*
G37*
G36*
X2204313Y-1916861D02*
G01*
X2204110Y-1916856D01*
X2203475Y-1916831D01*
X2202718Y-1916744D01*
X2202058Y-1916617D01*
X2201595Y-1916506D01*
X2200986Y-1916328D01*
X2200292Y-1916069D01*
X2199683Y-1915789D01*
X2199215Y-1915546D01*
X2198657Y-1915215D01*
X2198067Y-1914809D01*
X2197559Y-1914403D01*
X2197140Y-1914027D01*
X2196683Y-1913569D01*
X2196233Y-1913056D01*
X2195827Y-1912523D01*
X2195583Y-1912172D01*
X2195228Y-1911614D01*
X2194854Y-1910910D01*
X2194600Y-1910326D01*
X2194420Y-1909851D01*
X2194217Y-1909216D01*
X2194074Y-1908662D01*
X2193947Y-1908027D01*
X2193851Y-1907227D01*
X2193825Y-1906567D01*
X2193823Y-1906371D01*
X2193823Y-1882216D01*
X2193825Y-1882020D01*
X2193851Y-1881360D01*
X2193947Y-1880560D01*
X2194074Y-1879925D01*
X2194217Y-1879371D01*
X2194420Y-1878736D01*
X2194600Y-1878261D01*
X2194854Y-1877677D01*
X2195228Y-1876973D01*
X2195583Y-1876414D01*
X2195827Y-1876064D01*
X2196233Y-1875530D01*
X2196683Y-1875017D01*
X2197140Y-1874560D01*
X2197559Y-1874184D01*
X2198067Y-1873778D01*
X2198657Y-1873371D01*
X2199215Y-1873041D01*
X2199683Y-1872797D01*
X2200292Y-1872518D01*
X2200986Y-1872259D01*
X2201595Y-1872081D01*
X2202058Y-1871969D01*
X2202718Y-1871842D01*
X2203475Y-1871756D01*
X2204110Y-1871731D01*
X2204313Y-1871726D01*
X2338476Y-1871726D01*
X2338671Y-1871728D01*
X2339332Y-1871753D01*
X2340132Y-1871850D01*
X2340767Y-1871977D01*
X2341140Y-1872066D01*
X2341775Y-1872244D01*
X2342598Y-1872554D01*
X2343183Y-1872833D01*
X2343574Y-1873041D01*
X2344132Y-1873371D01*
X2344628Y-1873704D01*
X2345161Y-1874111D01*
X2345674Y-1874560D01*
X2346131Y-1875017D01*
X2346581Y-1875530D01*
X2346987Y-1876064D01*
X2347320Y-1876559D01*
X2347650Y-1877118D01*
X2347859Y-1877509D01*
X2348138Y-1878093D01*
X2348448Y-1878916D01*
X2348626Y-1879551D01*
X2348715Y-1879925D01*
X2348842Y-1880560D01*
X2348925Y-1881167D01*
X2348976Y-1881827D01*
X2348991Y-1882216D01*
X2348991Y-1906371D01*
X2348976Y-1906760D01*
X2348925Y-1907420D01*
X2348842Y-1908027D01*
X2348715Y-1908662D01*
X2348626Y-1909036D01*
X2348448Y-1909671D01*
X2348138Y-1910494D01*
X2347859Y-1911078D01*
X2347650Y-1911469D01*
X2347320Y-1912028D01*
X2346987Y-1912523D01*
X2346581Y-1913056D01*
X2346131Y-1913569D01*
X2345674Y-1914027D01*
X2345161Y-1914476D01*
X2344628Y-1914883D01*
X2344132Y-1915215D01*
X2343574Y-1915546D01*
X2343183Y-1915754D01*
X2342598Y-1916033D01*
X2341775Y-1916343D01*
X2341140Y-1916521D01*
X2340767Y-1916610D01*
X2340132Y-1916737D01*
X2339332Y-1916833D01*
X2338671Y-1916859D01*
X2338476Y-1916861D01*
G37*
D47*
G01*
X2743200Y1117600D03*
G01*
X2743200Y1117600D03*
M02*
