G04 Layer: InnerLayer1*
G04 EasyEDA v6.5.54, 2026-03-22 12:46:01*
G04 1c4a7dc281b241e1b8fa7fe193f345e7,78d06e4c035b4befa205035942b11892,10*
G04 Gerber Generator version 0.2*
G04 Scale: 100 percent, Rotated: No, Reflected: No *
G04 Dimensions in millimeters *
G04 leading zeros omitted , absolute positions ,4 integer and 5 decimal *
%FSLAX45Y45*%
%MOMM*%

%ADD10C,1.7000*%
%ADD11R,1.7000X1.7000*%
%ADD12C,5.8000*%
%ADD13O,1.099998X1.999996*%
%ADD14O,1.199998X1.799996*%
%ADD15C,0.6200*%
%ADD16C,0.0198*%
%ADD17C,0.6100*%

%LPD*%
D10*
G01*
X-1082700Y-2566593D03*
G01*
X-1082700Y-2312593D03*
D11*
G01*
X-1082700Y-2058593D03*
D10*
G01*
X-777900Y-2566593D03*
G01*
X-777900Y-2312593D03*
D11*
G01*
X-777900Y-2058593D03*
D12*
G01*
X3451199Y667512D03*
G01*
X3451199Y1387500D03*
D13*
G01*
X721385Y1314907D03*
G01*
X-143611Y1314907D03*
D14*
G01*
X721385Y1734921D03*
G01*
X-143611Y1734921D03*
D15*
G01*
X2743200Y1117600D03*
G01*
X2743200Y1117600D03*
G01*
X2743200Y1117600D03*
G01*
X1765300Y76200D03*
G01*
X2057400Y1663700D03*
G01*
X2336800Y1219200D03*
G01*
X2108200Y317500D03*
G01*
X2171700Y457200D03*
G01*
X2235200Y533400D03*
G01*
X2298700Y469900D03*
G01*
X-609498Y546176D03*
G01*
X-304800Y-444500D03*
G01*
X-393598Y-330123D03*
G01*
X-215900Y-533400D03*
G01*
X1130300Y977900D03*
G01*
X2552801Y254076D03*
G01*
X2921000Y1168400D03*
G01*
X2768600Y990600D03*
G01*
X1993900Y-1892300D03*
G01*
X1930501Y-2603423D03*
D17*
G01*
X-953770Y-873632D03*
G01*
X-853109Y-937285D03*
G01*
X-698500Y-381000D03*
G01*
X-1418539Y714781D03*
G01*
X-701776Y-468325D03*
G01*
X-1473200Y304800D03*
G01*
X-513562Y-862025D03*
G01*
X-2617292Y1553159D03*
G01*
X-455879Y-800912D03*
G01*
X-2552496Y1498015D03*
G01*
X990955Y-398983D03*
G01*
X-241300Y-850900D03*
D15*
G01*
X-698500Y1625600D03*
G01*
X-825500Y1625600D03*
G01*
X1092200Y381000D03*
G01*
X1079500Y495300D03*
G01*
X596900Y-508000D03*
G01*
X533400Y-622300D03*
G01*
X0Y-774700D03*
G01*
X-101600Y-698500D03*
G01*
X1612900Y-1092200D03*
G01*
X-736498Y-1308023D03*
G01*
X-101600Y-1397000D03*
G01*
X-736498Y-1701723D03*
G01*
X-1409700Y-1701800D03*
G01*
X-1549400Y-1041400D03*
G01*
X292100Y609600D03*
G01*
X0Y609600D03*
G01*
X825500Y850900D03*
G01*
X584200Y838200D03*
G01*
X-508000Y-457200D03*
G01*
X-990600Y-546100D03*
G01*
X736600Y-1346022D03*
G01*
X825500Y-2247900D03*
G01*
X-3035300Y-698500D03*
G01*
X-1841500Y-1155700D03*
G01*
X-1841500Y-1054100D03*
G01*
X-1981200Y-1066800D03*
G01*
X-2209800Y-1168400D03*
G01*
X-2082800Y-1041400D03*
G01*
X-2527300Y584200D03*
G01*
X-1193800Y901700D03*
G01*
X25400Y-215900D03*
G01*
X-2336800Y711200D03*
G01*
X-1295400Y800100D03*
G01*
X88900Y-292100D03*
G01*
X-50800Y-101600D03*
G01*
X114300Y304800D03*
G01*
X-3238500Y-114300D03*
G01*
X-190500Y-762000D03*
G01*
X-469900Y-1739900D03*
G01*
X825500Y-1066800D03*
G01*
X711200Y-889000D03*
G01*
X2349500Y-1828800D03*
G01*
X2590800Y-2463800D03*
G01*
X1346200Y-190500D03*
G01*
X762000Y-342900D03*
G01*
X-215900Y-1892300D03*
G01*
X2768600Y546100D03*
G01*
X-1701800Y-1257300D03*
G01*
X-3306495Y-1155700D03*
G01*
X-2794000Y-1346200D03*
G01*
X1358900Y978306D03*
G01*
X2019300Y1536700D03*
G01*
X1828800Y1104900D03*
G01*
X225399Y-1366596D03*
G01*
X-723900Y-1168400D03*
G01*
X304800Y876300D03*
G01*
X508000Y368300D03*
G01*
X723900Y-482600D03*
G01*
X431800Y-139700D03*
G01*
X-774700Y63500D03*
G01*
X1384300Y-800100D03*
G01*
X2032000Y-2171700D03*
G01*
X2743200Y-177800D03*
G01*
X2184400Y-2184400D03*
G01*
X2387600Y-1944293D03*
G01*
X2070100Y-1765300D03*
M02*
