G04 Layer: TopSilkscreenLayer*
G04 EasyEDA v6.5.54, 2026-03-22 12:46:01*
G04 1c4a7dc281b241e1b8fa7fe193f345e7,78d06e4c035b4befa205035942b11892,10*
G04 Gerber Generator version 0.2*
G04 Scale: 100 percent, Rotated: No, Reflected: No *
G04 Dimensions in millimeters *
G04 leading zeros omitted , absolute positions ,4 integer and 5 decimal *
%FSLAX45Y45*%
%MOMM*%

%ADD10C,0.4000*%
%ADD11C,0.2540*%
%ADD12C,0.1524*%
%ADD13C,0.1520*%
%ADD14C,0.1500*%
%ADD15C,0.1520*%
%ADD16C,0.2000*%
%ADD17C,1.0000*%
%ADD18C,0.1016*%
%ADD19C,0.0130*%
%ADD20C,0.6000*%
%ADD21C,0.3000*%

%LPD*%
D10*
X-2478102Y1342059D02*
G01*
X-2478102Y1151305D01*
X-2478102Y1151305D02*
G01*
X-2368882Y1151305D01*
X-2254328Y1342059D02*
G01*
X-2272616Y1332915D01*
X-2290904Y1314881D01*
X-2299794Y1296593D01*
X-2308938Y1269415D01*
X-2308938Y1223949D01*
X-2299794Y1196771D01*
X-2290904Y1178483D01*
X-2272616Y1160195D01*
X-2254328Y1151305D01*
X-2218006Y1151305D01*
X-2199972Y1160195D01*
X-2181684Y1178483D01*
X-2172540Y1196771D01*
X-2163650Y1223949D01*
X-2163650Y1269415D01*
X-2172540Y1296593D01*
X-2181684Y1314881D01*
X-2199972Y1332915D01*
X-2218006Y1342059D01*
X-2254328Y1342059D01*
X-2103452Y1342059D02*
G01*
X-2103452Y1151305D01*
X-2103452Y1342059D02*
G01*
X-2021664Y1342059D01*
X-1994486Y1332915D01*
X-1985342Y1324025D01*
X-1976198Y1305737D01*
X-1976198Y1287449D01*
X-1985342Y1269415D01*
X-1994486Y1260271D01*
X-2021664Y1251127D01*
X-2103452Y1251127D01*
X-2039952Y1251127D02*
G01*
X-1976198Y1151305D01*
X-1807288Y1278559D02*
G01*
X-1807288Y1151305D01*
X-1807288Y1251127D02*
G01*
X-1825322Y1269415D01*
X-1843610Y1278559D01*
X-1870788Y1278559D01*
X-1889076Y1269415D01*
X-1907110Y1251127D01*
X-1916254Y1223949D01*
X-1916254Y1205661D01*
X-1907110Y1178483D01*
X-1889076Y1160195D01*
X-1870788Y1151305D01*
X-1843610Y1151305D01*
X-1825322Y1160195D01*
X-1807288Y1178483D01*
G36*
X1981200Y496620D02*
G01*
X1945182Y471627D01*
X2017166Y470611D01*
G37*
G36*
X-768705Y41605D02*
G01*
X-768705Y-45262D01*
X-681837Y41605D01*
G37*
G36*
X1913280Y735431D02*
G01*
X1908759Y734822D01*
X1904441Y733399D01*
X1900428Y731215D01*
X1896872Y728370D01*
X1893874Y724966D01*
X1891588Y721055D01*
X1889963Y716788D01*
X1889150Y712317D01*
X1889150Y707796D01*
X1889963Y703326D01*
X1891588Y699058D01*
X1893874Y695147D01*
X1896872Y691692D01*
X1900428Y688898D01*
X1904441Y686714D01*
X1908759Y685292D01*
X1913280Y684682D01*
X1917801Y684885D01*
X1922221Y685850D01*
X1926437Y687628D01*
X1930247Y690118D01*
X1933498Y693267D01*
X1934972Y695045D01*
X1937308Y698957D01*
X1938934Y703173D01*
X1939747Y707644D01*
X1939848Y710184D01*
X1939442Y714705D01*
X1938223Y719074D01*
X1936191Y723188D01*
X1934972Y725068D01*
X1931924Y728472D01*
X1928368Y731316D01*
X1924354Y733450D01*
X1920036Y734822D01*
X1915515Y735431D01*
G37*
G36*
X2033371Y-1810308D02*
G01*
X2030374Y-1810664D01*
X2028952Y-1811070D01*
X2026310Y-1812493D01*
X2024024Y-1814474D01*
X2022297Y-1816963D01*
X2021281Y-1819808D01*
X2020925Y-1822805D01*
X2021281Y-1825752D01*
X2022297Y-1828596D01*
X2024024Y-1831086D01*
X2026310Y-1833067D01*
X2028952Y-1834489D01*
X2031898Y-1835200D01*
X2034895Y-1835200D01*
X2037842Y-1834489D01*
X2040534Y-1833067D01*
X2042718Y-1831086D01*
X2044446Y-1828596D01*
X2045512Y-1825752D01*
X2045868Y-1822805D01*
X2045817Y-1821281D01*
X2045055Y-1818335D01*
X2043684Y-1815693D01*
X2041652Y-1813407D01*
X2039213Y-1811731D01*
X2037842Y-1811070D01*
X2034895Y-1810410D01*
G37*
D11*
X-23357Y-1268575D02*
G01*
X-23357Y-1188577D01*
X-23403Y-1324620D02*
G01*
X-23403Y-1404617D01*
X118610Y-1268572D02*
G01*
X118610Y-1188577D01*
X118562Y-1324620D02*
G01*
X118562Y-1404617D01*
X7625Y-1157602D02*
G01*
X87629Y-1157599D01*
X87576Y-1435595D02*
G01*
X7574Y-1435595D01*
X-667857Y-1292781D02*
G01*
X-667857Y-1212783D01*
X-667903Y-1348826D02*
G01*
X-667903Y-1428823D01*
X-525889Y-1292781D02*
G01*
X-525889Y-1212783D01*
X-525937Y-1348826D02*
G01*
X-525937Y-1428823D01*
X-636874Y-1181808D02*
G01*
X-556869Y-1181808D01*
X-556922Y-1459801D02*
G01*
X-636925Y-1459801D01*
X-720613Y359369D02*
G01*
X-664047Y302801D01*
X-760211Y399031D02*
G01*
X-816777Y455597D01*
X-820999Y258980D02*
G01*
X-764433Y202415D01*
X-860595Y298645D02*
G01*
X-917163Y355211D01*
X-664052Y258991D02*
G01*
X-720623Y202417D01*
X-917158Y399026D02*
G01*
X-860587Y455597D01*
X-1012713Y79969D02*
G01*
X-956147Y23401D01*
X-1052311Y119631D02*
G01*
X-1108877Y176197D01*
X-1113099Y-20419D02*
G01*
X-1056533Y-76984D01*
X-1152695Y19245D02*
G01*
X-1209263Y75811D01*
X-956152Y-20408D02*
G01*
X-1012723Y-76982D01*
X-1209258Y119626D02*
G01*
X-1152687Y176197D01*
X395462Y119319D02*
G01*
X338894Y62753D01*
X435124Y158917D02*
G01*
X491690Y215483D01*
X295074Y219704D02*
G01*
X238508Y163139D01*
X334738Y259300D02*
G01*
X391304Y315869D01*
X295084Y62758D02*
G01*
X238511Y119329D01*
X435119Y315864D02*
G01*
X491690Y259293D01*
X154442Y-1268575D02*
G01*
X154442Y-1188577D01*
X154396Y-1324620D02*
G01*
X154396Y-1404617D01*
X296410Y-1268572D02*
G01*
X296410Y-1188577D01*
X296362Y-1324620D02*
G01*
X296362Y-1404617D01*
X185425Y-1157602D02*
G01*
X265429Y-1157599D01*
X265376Y-1435595D02*
G01*
X185374Y-1435595D01*
X-1163157Y-1114981D02*
G01*
X-1163157Y-1034983D01*
X-1163203Y-1171026D02*
G01*
X-1163203Y-1251023D01*
X-1021189Y-1114981D02*
G01*
X-1021189Y-1034983D01*
X-1021237Y-1171026D02*
G01*
X-1021237Y-1251023D01*
X-1132174Y-1004008D02*
G01*
X-1052169Y-1004008D01*
X-1052222Y-1282001D02*
G01*
X-1132225Y-1282001D01*
X-898413Y257769D02*
G01*
X-841847Y201201D01*
X-938011Y297431D02*
G01*
X-994577Y353997D01*
X-998799Y157380D02*
G01*
X-942233Y100815D01*
X-1038395Y197045D02*
G01*
X-1094963Y253611D01*
X-841852Y157391D02*
G01*
X-898423Y100817D01*
X-1094958Y297426D02*
G01*
X-1038387Y353997D01*
X-1926142Y-715012D02*
G01*
X-1926142Y-795009D01*
X-1926097Y-658967D02*
G01*
X-1926097Y-578970D01*
X-2068111Y-715012D02*
G01*
X-2068111Y-795009D01*
X-2068062Y-658967D02*
G01*
X-2068062Y-578970D01*
X-1957125Y-825985D02*
G01*
X-2037130Y-825985D01*
X-2037077Y-547992D02*
G01*
X-1957075Y-547992D01*
X-1382257Y-658975D02*
G01*
X-1382257Y-578977D01*
X-1382303Y-715020D02*
G01*
X-1382303Y-795017D01*
X-1240289Y-658975D02*
G01*
X-1240289Y-578977D01*
X-1240337Y-715020D02*
G01*
X-1240337Y-795017D01*
X-1351274Y-548002D02*
G01*
X-1271270Y-548002D01*
X-1271323Y-825995D02*
G01*
X-1351325Y-825995D01*
X-2052157Y-213281D02*
G01*
X-2052157Y-133283D01*
X-2052203Y-269326D02*
G01*
X-2052203Y-349323D01*
X-1910189Y-213281D02*
G01*
X-1910189Y-133283D01*
X-1910237Y-269326D02*
G01*
X-1910237Y-349323D01*
X-2021174Y-102308D02*
G01*
X-1941169Y-102308D01*
X-1941222Y-380301D02*
G01*
X-2021225Y-380301D01*
X-1366357Y-213281D02*
G01*
X-1366357Y-133283D01*
X-1366403Y-269326D02*
G01*
X-1366403Y-349323D01*
X-1224389Y-213281D02*
G01*
X-1224389Y-133283D01*
X-1224437Y-269326D02*
G01*
X-1224437Y-349323D01*
X-1335374Y-102308D02*
G01*
X-1255369Y-102308D01*
X-1255422Y-380301D02*
G01*
X-1335425Y-380301D01*
X1086380Y-2066051D02*
G01*
X1006383Y-2066051D01*
X1142425Y-2066096D02*
G01*
X1222423Y-2066096D01*
X1086380Y-1924083D02*
G01*
X1006383Y-1924083D01*
X1142425Y-1924131D02*
G01*
X1222423Y-1924131D01*
X975408Y-2035068D02*
G01*
X975408Y-1955063D01*
X1253401Y-1955116D02*
G01*
X1253401Y-2035119D01*
X1770542Y-314881D02*
G01*
X1770542Y-234883D01*
X1770496Y-370926D02*
G01*
X1770496Y-450923D01*
X1912510Y-314881D02*
G01*
X1912510Y-234883D01*
X1912462Y-370926D02*
G01*
X1912462Y-450923D01*
X1801525Y-203908D02*
G01*
X1881530Y-203908D01*
X1881477Y-481901D02*
G01*
X1801474Y-481901D01*
X2486581Y-604357D02*
G01*
X2406583Y-604357D01*
X2542626Y-604403D02*
G01*
X2622623Y-604403D01*
X2486581Y-462389D02*
G01*
X2406583Y-462389D01*
X2542626Y-462437D02*
G01*
X2622623Y-462437D01*
X2375608Y-573374D02*
G01*
X2375608Y-493369D01*
X2653601Y-493422D02*
G01*
X2653601Y-573425D01*
X2011842Y-1470581D02*
G01*
X2011842Y-1390583D01*
X2011796Y-1526626D02*
G01*
X2011796Y-1606623D01*
X2153810Y-1470581D02*
G01*
X2153810Y-1390583D01*
X2153762Y-1526626D02*
G01*
X2153762Y-1606623D01*
X2042825Y-1359608D02*
G01*
X2122830Y-1359608D01*
X2122777Y-1637601D02*
G01*
X2042774Y-1637601D01*
X1806018Y1645757D02*
G01*
X1886016Y1645757D01*
X1749973Y1645803D02*
G01*
X1669976Y1645803D01*
X1806018Y1503789D02*
G01*
X1886016Y1503789D01*
X1749973Y1503837D02*
G01*
X1669976Y1503837D01*
X1916991Y1614774D02*
G01*
X1916991Y1534769D01*
X1638998Y1534822D02*
G01*
X1638998Y1614825D01*
X1650418Y831763D02*
G01*
X1730415Y831763D01*
X1594373Y831809D02*
G01*
X1514375Y831809D01*
X1650418Y689795D02*
G01*
X1730415Y689795D01*
X1594373Y689843D02*
G01*
X1514375Y689843D01*
X1761390Y800780D02*
G01*
X1761390Y720775D01*
X1483398Y720829D02*
G01*
X1483398Y800831D01*
X-886957Y941224D02*
G01*
X-886957Y1021222D01*
X-887003Y885179D02*
G01*
X-887003Y805182D01*
X-744989Y941224D02*
G01*
X-744989Y1021222D01*
X-745037Y885179D02*
G01*
X-745037Y805182D01*
X-855974Y1052197D02*
G01*
X-775970Y1052197D01*
X-776023Y774204D02*
G01*
X-856025Y774204D01*
X-696457Y941224D02*
G01*
X-696457Y1021222D01*
X-696503Y885179D02*
G01*
X-696503Y805182D01*
X-554489Y941224D02*
G01*
X-554489Y1021222D01*
X-554537Y885179D02*
G01*
X-554537Y805182D01*
X-665474Y1052197D02*
G01*
X-585470Y1052197D01*
X-585523Y774204D02*
G01*
X-665525Y774204D01*
X972080Y-770651D02*
G01*
X892083Y-770651D01*
X1028125Y-770696D02*
G01*
X1108123Y-770696D01*
X972080Y-628683D02*
G01*
X892083Y-628683D01*
X1028125Y-628731D02*
G01*
X1108123Y-628731D01*
X861108Y-739668D02*
G01*
X861108Y-659663D01*
X1139101Y-659716D02*
G01*
X1139101Y-739719D01*
X1221242Y-544675D02*
G01*
X1221242Y-464677D01*
X1221196Y-600720D02*
G01*
X1221196Y-680717D01*
X1363210Y-544675D02*
G01*
X1363210Y-464677D01*
X1363162Y-600720D02*
G01*
X1363162Y-680717D01*
X1252225Y-433702D02*
G01*
X1332229Y-433702D01*
X1332176Y-711695D02*
G01*
X1252174Y-711695D01*
X-2715181Y-56042D02*
G01*
X-2635183Y-56042D01*
X-2771226Y-55996D02*
G01*
X-2851223Y-55996D01*
X-2715181Y-198010D02*
G01*
X-2635183Y-198010D01*
X-2771226Y-197962D02*
G01*
X-2851223Y-197962D01*
X-2604208Y-87025D02*
G01*
X-2604208Y-167030D01*
X-2882201Y-166977D02*
G01*
X-2882201Y-86974D01*
X-3267100Y-1413179D02*
G01*
X-3267100Y-2164092D01*
X-1793900Y-2170445D02*
G01*
X-1793900Y-1421145D01*
X-3267100Y-2405390D02*
G01*
X-3267100Y-2711399D01*
X-1793900Y-2711396D01*
X-1793900Y-2420396D01*
X-3267100Y-2662862D02*
G01*
X-3267100Y-2640396D01*
X-2430500Y-2640396D01*
X-2136800Y-2710103D01*
D12*
X-1030264Y-953693D02*
G01*
X-1045499Y-969103D01*
X-1147142Y-969103D01*
X-1160399Y-953693D01*
X-1160399Y-699693D02*
G01*
X-1145298Y-684278D01*
X-1043655Y-684278D01*
X-1030399Y-699693D01*
D13*
X-1160399Y-953894D02*
G01*
X-1160399Y-877694D01*
X-1030399Y-699488D02*
G01*
X-1030399Y-775688D01*
X-1030399Y-953894D02*
G01*
X-1030399Y-877694D01*
X-1160399Y-699488D02*
G01*
X-1160399Y-775688D01*
D11*
X1955800Y-965200D02*
G01*
X1955800Y-660400D01*
X1957186Y-965200D02*
G01*
X1955800Y-965200D01*
X2336800Y-965200D02*
G01*
X2335415Y-965200D01*
X2335415Y-660400D02*
G01*
X2336800Y-660400D01*
X1955800Y-660400D02*
G01*
X1957186Y-660400D01*
X2336800Y-965200D02*
G01*
X2336800Y-660400D01*
D12*
X2360564Y-2247900D02*
G01*
X2375799Y-2232489D01*
X2477442Y-2232489D01*
X2490698Y-2247900D01*
X2490698Y-2501900D02*
G01*
X2475598Y-2517315D01*
X2373955Y-2517315D01*
X2360698Y-2501900D01*
D13*
X2490698Y-2247699D02*
G01*
X2490698Y-2323899D01*
X2360698Y-2502105D02*
G01*
X2360698Y-2425905D01*
X2360698Y-2247699D02*
G01*
X2360698Y-2323899D01*
X2490698Y-2502105D02*
G01*
X2490698Y-2425905D01*
D12*
X1448407Y1281506D02*
G01*
X1448407Y1281506D01*
X1448407Y1137488D01*
X1413609Y1102690D01*
X1221585Y1102690D01*
X1186787Y1137488D01*
X1186787Y1281506D01*
X1448407Y1383106D02*
G01*
X1448407Y1383106D01*
X1448407Y1527124D01*
X1413863Y1561922D01*
X1221331Y1561922D01*
X1186787Y1527124D01*
X1186787Y1383106D01*
D14*
X1908200Y519605D02*
G01*
X1908200Y634603D01*
X2053198Y634603D01*
X2053198Y514603D01*
X2054199Y452605D02*
G01*
X2054199Y328604D01*
X1909201Y328604D01*
X1909201Y452605D01*
X1908200Y634603D02*
G01*
X1908200Y637606D01*
X1928200Y657605D01*
X2030199Y657605D01*
X2033198Y654603D01*
X2053198Y634603D01*
D11*
X-957706Y-2183084D02*
G01*
X-1207706Y-2183084D01*
X-1207706Y-1931593D02*
G01*
X-1207706Y-2693593D01*
X-957706Y-2693593D02*
G01*
X-957706Y-1931593D01*
X-957706Y-2693593D02*
G01*
X-1207706Y-2693593D01*
X-957706Y-1931593D02*
G01*
X-1207706Y-1931593D01*
X-652906Y-2183084D02*
G01*
X-902906Y-2183084D01*
X-902906Y-1931593D02*
G01*
X-902906Y-2693593D01*
X-652906Y-2693593D02*
G01*
X-652906Y-1931593D01*
X-652906Y-2693593D02*
G01*
X-902906Y-2693593D01*
X-652906Y-1931593D02*
G01*
X-902906Y-1931593D01*
D12*
X1144320Y-1692854D02*
G01*
X1240208Y-1692854D01*
X1240208Y-1560733D01*
X1144320Y-1560733D01*
X1059078Y-1692854D02*
G01*
X963190Y-1692854D01*
X963190Y-1560733D01*
X1059078Y-1560733D01*
X2471978Y-276839D02*
G01*
X2376091Y-276839D01*
X2376091Y-408960D01*
X2471978Y-408960D01*
X2557221Y-276839D02*
G01*
X2653108Y-276839D01*
X2653108Y-408960D01*
X2557221Y-408960D01*
X2557221Y-243860D02*
G01*
X2653108Y-243860D01*
X2653108Y-111739D01*
X2557221Y-111739D01*
X2471978Y-243860D02*
G01*
X2376091Y-243860D01*
X2376091Y-111739D01*
X2471978Y-111739D01*
X2071420Y-2505654D02*
G01*
X2167308Y-2505654D01*
X2167308Y-2373533D01*
X2071420Y-2373533D01*
X1986178Y-2505654D02*
G01*
X1890290Y-2505654D01*
X1890290Y-2373533D01*
X1986178Y-2373533D01*
X2352060Y-1455978D02*
G01*
X2352060Y-1360091D01*
X2219939Y-1360091D01*
X2219939Y-1455978D01*
X2352060Y-1541221D02*
G01*
X2352060Y-1637108D01*
X2219939Y-1637108D01*
X2219939Y-1541221D01*
X57739Y895985D02*
G01*
X57739Y800097D01*
X189859Y800097D01*
X189859Y895985D01*
X57739Y981227D02*
G01*
X57739Y1077114D01*
X189859Y1077114D01*
X189859Y981227D01*
X362539Y895985D02*
G01*
X362539Y800097D01*
X494659Y800097D01*
X494659Y895985D01*
X362539Y981227D02*
G01*
X362539Y1077114D01*
X494659Y1077114D01*
X494659Y981227D01*
X2595321Y797539D02*
G01*
X2691208Y797539D01*
X2691208Y929660D01*
X2595321Y929660D01*
X2510078Y797539D02*
G01*
X2414191Y797539D01*
X2414191Y929660D01*
X2510078Y929660D01*
X2372339Y579678D02*
G01*
X2372339Y483791D01*
X2504460Y483791D01*
X2504460Y579678D01*
X2372339Y664921D02*
G01*
X2372339Y760808D01*
X2504460Y760808D01*
X2504460Y664921D01*
X2537439Y579678D02*
G01*
X2537439Y483791D01*
X2669560Y483791D01*
X2669560Y579678D01*
X2537439Y664921D02*
G01*
X2537439Y760808D01*
X2669560Y760808D01*
X2669560Y664921D01*
X2791439Y732078D02*
G01*
X2791439Y636191D01*
X2923560Y636191D01*
X2923560Y732078D01*
X2791439Y817321D02*
G01*
X2791439Y913208D01*
X2923560Y913208D01*
X2923560Y817321D01*
X2510078Y1082060D02*
G01*
X2414191Y1082060D01*
X2414191Y949939D01*
X2510078Y949939D01*
X2595321Y1082060D02*
G01*
X2691208Y1082060D01*
X2691208Y949939D01*
X2595321Y949939D01*
X-450260Y362585D02*
G01*
X-450260Y266697D01*
X-318140Y266697D01*
X-318140Y362585D01*
X-450260Y447827D02*
G01*
X-450260Y543714D01*
X-318140Y543714D01*
X-318140Y447827D01*
X-285160Y362585D02*
G01*
X-285160Y266697D01*
X-153040Y266697D01*
X-153040Y362585D01*
X-285160Y447827D02*
G01*
X-285160Y543714D01*
X-153040Y543714D01*
X-153040Y447827D01*
X-129560Y363778D02*
G01*
X-129560Y267891D01*
X2560Y267891D01*
X2560Y363778D01*
X-129560Y449021D02*
G01*
X-129560Y544908D01*
X2560Y544908D01*
X2560Y449021D01*
X1496039Y109778D02*
G01*
X1496039Y13891D01*
X1628160Y13891D01*
X1628160Y109778D01*
X1496039Y195021D02*
G01*
X1496039Y290908D01*
X1628160Y290908D01*
X1628160Y195021D01*
X-2571160Y-1021714D02*
G01*
X-2571160Y-1117602D01*
X-2439040Y-1117602D01*
X-2439040Y-1021714D01*
X-2571160Y-936472D02*
G01*
X-2571160Y-840585D01*
X-2439040Y-840585D01*
X-2439040Y-936472D01*
X-2418760Y-1021714D02*
G01*
X-2418760Y-1117602D01*
X-2286640Y-1117602D01*
X-2286640Y-1021714D01*
X-2418760Y-936472D02*
G01*
X-2418760Y-840585D01*
X-2286640Y-840585D01*
X-2286640Y-936472D01*
X-2279060Y-1021714D02*
G01*
X-2279060Y-1117602D01*
X-2146940Y-1117602D01*
X-2146940Y-1021714D01*
X-2279060Y-936472D02*
G01*
X-2279060Y-840585D01*
X-2146940Y-840585D01*
X-2146940Y-936472D01*
X-3180760Y-1021714D02*
G01*
X-3180760Y-1117602D01*
X-3048640Y-1117602D01*
X-3048640Y-1021714D01*
X-3180760Y-936472D02*
G01*
X-3180760Y-840585D01*
X-3048640Y-840585D01*
X-3048640Y-936472D01*
X-2812460Y-1021714D02*
G01*
X-2812460Y-1117602D01*
X-2680340Y-1117602D01*
X-2680340Y-1021714D01*
X-2812460Y-936472D02*
G01*
X-2812460Y-840585D01*
X-2680340Y-840585D01*
X-2680340Y-936472D01*
X-3028360Y-1021714D02*
G01*
X-3028360Y-1117602D01*
X-2896240Y-1117602D01*
X-2896240Y-1021714D01*
X-3028360Y-936472D02*
G01*
X-3028360Y-840585D01*
X-2896240Y-840585D01*
X-2896240Y-936472D01*
X1185621Y-205760D02*
G01*
X1281508Y-205760D01*
X1281508Y-73639D01*
X1185621Y-73639D01*
X1100378Y-205760D02*
G01*
X1004491Y-205760D01*
X1004491Y-73639D01*
X1100378Y-73639D01*
X-51440Y-1647672D02*
G01*
X-51440Y-1551785D01*
X-183560Y-1551785D01*
X-183560Y-1647672D01*
X-51440Y-1732914D02*
G01*
X-51440Y-1828802D01*
X-183560Y-1828802D01*
X-183560Y-1732914D01*
X-216540Y-1647672D02*
G01*
X-216540Y-1551785D01*
X-348660Y-1551785D01*
X-348660Y-1647672D01*
X-216540Y-1732914D02*
G01*
X-216540Y-1828802D01*
X-348660Y-1828802D01*
X-348660Y-1732914D01*
D15*
X403778Y-1840974D02*
G01*
X403778Y-1884080D01*
X403778Y-2149213D02*
G01*
X403778Y-2106107D01*
X809020Y-2106107D02*
G01*
X809020Y-2149213D01*
X809020Y-1840974D02*
G01*
X809020Y-1884080D01*
D12*
X809020Y-1840974D02*
G01*
X403778Y-1840974D01*
X809020Y-2149213D02*
G01*
X403778Y-2149213D01*
D15*
X403778Y-1472674D02*
G01*
X403778Y-1515780D01*
X403778Y-1780913D02*
G01*
X403778Y-1737807D01*
X809020Y-1737807D02*
G01*
X809020Y-1780913D01*
X809020Y-1472674D02*
G01*
X809020Y-1515780D01*
D12*
X809020Y-1472674D02*
G01*
X403778Y-1472674D01*
X809020Y-1780913D02*
G01*
X403778Y-1780913D01*
D11*
X-681840Y41605D02*
G01*
X-681840Y41602D01*
X-768718Y-45275D01*
X231279Y-958392D02*
G01*
X231279Y-871514D01*
X231279Y-958392D02*
G01*
X144398Y-958392D01*
X144398Y41605D02*
G01*
X231279Y41605D01*
X231279Y-45275D01*
X-768718Y-45275D02*
G01*
X-768718Y41605D01*
X-681840Y41605D01*
X-681840Y-958392D02*
G01*
X-768718Y-958392D01*
X-768718Y-871512D01*
D16*
X156281Y-33393D02*
G01*
X-693719Y-33393D01*
X-693719Y-883394D01*
X156281Y-883394D01*
X156281Y-33393D01*
D12*
X2300218Y-457220D02*
G01*
X2300218Y-279379D01*
X1992381Y-457220D02*
G01*
X1992381Y-279379D01*
D16*
X2295880Y1164409D02*
G01*
X2295880Y1204419D01*
X2255875Y1204419D01*
X1865861Y1164409D02*
G01*
X1865861Y1204419D01*
X1905863Y1204419D01*
X1905863Y774392D02*
G01*
X1865861Y774392D01*
X1865861Y814397D01*
X2295880Y814397D02*
G01*
X2295880Y774392D01*
X2255875Y774392D01*
D11*
X3041243Y417398D02*
G01*
X3041243Y247507D01*
X3851198Y247507D01*
X3851198Y427575D01*
X3041243Y507568D02*
G01*
X3041243Y417398D01*
X3201263Y257632D01*
X3701135Y257632D01*
X3851249Y407492D01*
X3851249Y1807540D01*
X3041243Y1807540D01*
X3041243Y497408D01*
D12*
X1095837Y-249572D02*
G01*
X1170406Y-249572D01*
X1170406Y-274144D01*
X1095837Y-514814D02*
G01*
X1170406Y-514814D01*
X1170406Y-490242D01*
X929736Y-249572D02*
G01*
X855167Y-249572D01*
X855167Y-274144D01*
X929736Y-514814D02*
G01*
X855167Y-514814D01*
X855167Y-490242D01*
D16*
X-880711Y1162319D02*
G01*
X-908212Y1162319D01*
X-908212Y1502318D01*
X-880711Y1502318D01*
X-395711Y1162319D02*
G01*
X-368213Y1162319D01*
X-368213Y1502318D01*
X-395711Y1502318D01*
D11*
X-1528099Y151312D02*
G01*
X-1528102Y1751307D01*
X-3228406Y1750893D02*
G01*
X-3228403Y150898D01*
D17*
X-3078099Y751309D02*
G01*
X-3078099Y1551307D01*
X-1678101Y1551307D01*
X-1678101Y351309D01*
X-2678099Y351309D01*
D11*
X-3228403Y150898D02*
G01*
X-3166214Y150898D01*
X-2989986Y150898D02*
G01*
X-2966212Y150898D01*
X-2789984Y150898D02*
G01*
X-2766214Y150898D01*
X-2589987Y150898D02*
G01*
X-2566212Y150898D01*
X-2389985Y150898D02*
G01*
X-2366215Y150898D01*
X-2189985Y150898D02*
G01*
X-2166216Y150898D01*
X-1989988Y150898D02*
G01*
X-1966216Y150898D01*
X-1789986Y150898D02*
G01*
X-1766216Y150898D01*
X-1589989Y150898D02*
G01*
X-1528099Y150898D01*
X-3228406Y1750893D02*
G01*
X-3166214Y1750893D01*
X-2989986Y1750893D02*
G01*
X-2966062Y1750893D01*
X-2789831Y1750893D02*
G01*
X-2766214Y1750893D01*
X-2589987Y1750893D02*
G01*
X-2566212Y1750893D01*
X-2389985Y1750893D02*
G01*
X-2366215Y1750893D01*
X-2189985Y1750893D02*
G01*
X-2166216Y1750893D01*
X-1989988Y1750893D02*
G01*
X-1966216Y1750893D01*
X-1789986Y1750893D02*
G01*
X-1766216Y1750893D01*
X-1589989Y1750893D02*
G01*
X-1518102Y1750893D01*
X-3158093Y611317D02*
G01*
X-2788091Y611317D01*
X-2788091Y291327D01*
X-3158093Y291327D01*
X-3158093Y611317D01*
X-168308Y1637101D02*
G01*
X-168308Y1437706D01*
X-168308Y1980003D02*
G01*
X-168308Y1832706D01*
X738891Y1636788D02*
G01*
X738891Y1438015D01*
X738891Y1994903D02*
G01*
X738891Y1833018D01*
X-161107Y1994903D02*
G01*
X738891Y1994903D01*
X-1714500Y-165100D02*
G01*
X-1612900Y-165100D01*
X-1612900Y-317500D02*
G01*
X-1714500Y-317500D01*
D12*
X-1818960Y-867542D02*
G01*
X-1818960Y-531820D01*
X-1413240Y-531820D01*
X-1413240Y-867542D01*
X-1818960Y-867542D01*
X-1841820Y-724682D02*
G01*
X-1841820Y-890402D01*
X-1656100Y-890402D01*
X607075Y266971D02*
G01*
X507372Y167269D01*
X635162Y39479D02*
G01*
X734865Y139181D01*
X734865Y160736D02*
G01*
X628629Y266971D01*
X350934Y10830D02*
G01*
X450636Y110533D01*
X578426Y-17256D02*
G01*
X478723Y-116959D01*
X457169Y-116959D02*
G01*
X350934Y-10723D01*
X2462339Y-669780D02*
G01*
X2462339Y-810780D01*
X2643060Y-810780D02*
G01*
X2643060Y-669780D01*
X2627820Y-654540D02*
G01*
X2477579Y-654540D01*
X2462339Y-1032019D02*
G01*
X2462339Y-891019D01*
X2643060Y-891019D02*
G01*
X2643060Y-1032019D01*
X2627820Y-1047259D02*
G01*
X2477579Y-1047259D01*
X2678239Y-669780D02*
G01*
X2678239Y-810780D01*
X2858960Y-810780D02*
G01*
X2858960Y-669780D01*
X2843720Y-654540D02*
G01*
X2693479Y-654540D01*
X2678239Y-1032019D02*
G01*
X2678239Y-891019D01*
X2858960Y-891019D02*
G01*
X2858960Y-1032019D01*
X2843720Y-1047259D02*
G01*
X2693479Y-1047259D01*
X1507980Y-1703260D02*
G01*
X1648980Y-1703260D01*
X1648980Y-1522539D02*
G01*
X1507980Y-1522539D01*
X1492740Y-1537779D02*
G01*
X1492740Y-1688020D01*
X1870219Y-1703260D02*
G01*
X1729219Y-1703260D01*
X1729219Y-1522539D02*
G01*
X1870219Y-1522539D01*
X1885459Y-1537779D02*
G01*
X1885459Y-1688020D01*
X1507980Y-1906460D02*
G01*
X1648980Y-1906460D01*
X1648980Y-1725739D02*
G01*
X1507980Y-1725739D01*
X1492740Y-1740979D02*
G01*
X1492740Y-1891220D01*
X1870219Y-1906460D02*
G01*
X1729219Y-1906460D01*
X1729219Y-1725739D02*
G01*
X1870219Y-1725739D01*
X1885459Y-1740979D02*
G01*
X1885459Y-1891220D01*
X1507980Y-2122360D02*
G01*
X1648980Y-2122360D01*
X1648980Y-1941639D02*
G01*
X1507980Y-1941639D01*
X1492740Y-1956879D02*
G01*
X1492740Y-2107120D01*
X1870219Y-2122360D02*
G01*
X1729219Y-2122360D01*
X1729219Y-1941639D02*
G01*
X1870219Y-1941639D01*
X1885459Y-1956879D02*
G01*
X1885459Y-2107120D01*
X1507980Y-2325560D02*
G01*
X1648980Y-2325560D01*
X1648980Y-2144839D02*
G01*
X1507980Y-2144839D01*
X1492740Y-2160079D02*
G01*
X1492740Y-2310320D01*
X1870219Y-2325560D02*
G01*
X1729219Y-2325560D01*
X1729219Y-2144839D02*
G01*
X1870219Y-2144839D01*
X1885459Y-2160079D02*
G01*
X1885459Y-2310320D01*
X2810019Y-1967039D02*
G01*
X2669019Y-1967039D01*
X2669019Y-2147760D02*
G01*
X2810019Y-2147760D01*
X2825259Y-2132520D02*
G01*
X2825259Y-1982279D01*
X2447780Y-1967039D02*
G01*
X2588780Y-1967039D01*
X2588780Y-2147760D02*
G01*
X2447780Y-2147760D01*
X2432540Y-2132520D02*
G01*
X2432540Y-1982279D01*
X2810019Y-1776539D02*
G01*
X2669019Y-1776539D01*
X2669019Y-1957260D02*
G01*
X2810019Y-1957260D01*
X2825259Y-1942020D02*
G01*
X2825259Y-1791779D01*
X2447780Y-1776539D02*
G01*
X2588780Y-1776539D01*
X2588780Y-1957260D02*
G01*
X2447780Y-1957260D01*
X2432540Y-1942020D02*
G01*
X2432540Y-1791779D01*
X2810019Y-1586039D02*
G01*
X2669019Y-1586039D01*
X2669019Y-1766760D02*
G01*
X2810019Y-1766760D01*
X2825259Y-1751520D02*
G01*
X2825259Y-1601279D01*
X2447780Y-1586039D02*
G01*
X2588780Y-1586039D01*
X2588780Y-1766760D02*
G01*
X2447780Y-1766760D01*
X2432540Y-1751520D02*
G01*
X2432540Y-1601279D01*
X2424239Y1476519D02*
G01*
X2424239Y1335519D01*
X2604960Y1335519D02*
G01*
X2604960Y1476519D01*
X2589720Y1491759D02*
G01*
X2439479Y1491759D01*
X2424239Y1114280D02*
G01*
X2424239Y1255280D01*
X2604960Y1255280D02*
G01*
X2604960Y1114280D01*
X2589720Y1099040D02*
G01*
X2439479Y1099040D01*
X2835419Y1779460D02*
G01*
X2694419Y1779460D01*
X2694419Y1598739D02*
G01*
X2835419Y1598739D01*
X2850659Y1613979D02*
G01*
X2850659Y1764220D01*
X2473180Y1779460D02*
G01*
X2614180Y1779460D01*
X2614180Y1598739D02*
G01*
X2473180Y1598739D01*
X2457940Y1613979D02*
G01*
X2457940Y1764220D01*
X1834979Y1292745D02*
G01*
X1975980Y1292745D01*
X1975980Y1473466D02*
G01*
X1834979Y1473466D01*
X1819739Y1458226D02*
G01*
X1819739Y1307985D01*
X2197219Y1292745D02*
G01*
X2056218Y1292745D01*
X2056218Y1473466D02*
G01*
X2197219Y1473466D01*
X2212459Y1458226D02*
G01*
X2212459Y1307985D01*
X1661960Y897186D02*
G01*
X1661960Y1038186D01*
X1481239Y1038186D02*
G01*
X1481239Y897186D01*
X1496479Y881946D02*
G01*
X1646720Y881946D01*
X1661960Y1259425D02*
G01*
X1661960Y1118425D01*
X1481239Y1118425D02*
G01*
X1481239Y1259425D01*
X1496479Y1274665D02*
G01*
X1646720Y1274665D01*
D18*
X2093899Y-1783283D02*
G01*
X2057907Y-1783283D01*
X2057907Y-1841296D01*
X2294889Y-1783283D02*
G01*
X2329891Y-1783283D01*
X2329891Y-1866290D01*
X2093899Y-2105304D02*
G01*
X2057907Y-2105304D01*
X2057907Y-2047290D01*
X2294889Y-2105304D02*
G01*
X2329891Y-2105304D01*
X2329891Y-2022297D01*
D11*
G75*
G01*
X118562Y-1404612D02*
G02*
X87577Y-1435595I-30983J0D01*
G75*
G01*
X7579Y-1435595D02*
G02*
X-23404Y-1404615I0J30983D01*
G75*
G01*
X-23358Y-1188583D02*
G02*
X7625Y-1157602I30983J-2D01*
G75*
G01*
X87620Y-1157602D02*
G02*
X118613Y-1188583I10J-30983D01*
G75*
G01*
X-525937Y-1428819D02*
G02*
X-556923Y-1459801I-30983J0D01*
G75*
G01*
X-636920Y-1459801D02*
G02*
X-667903Y-1428819I0J30982D01*
G75*
G01*
X-667857Y-1212789D02*
G02*
X-636875Y-1181809I30982J-3D01*
G75*
G01*
X-556877Y-1181809D02*
G02*
X-525889Y-1212789I5J-30983D01*
G75*
G01*
X-917158Y355209D02*
G02*
X-917158Y399026I21907J21909D01*
G75*
G01*
X-860590Y455595D02*
G02*
X-816775Y455595I21907J-21909D01*
G75*
G01*
X-664050Y302806D02*
G02*
X-664053Y258991I-21910J-21906D01*
G75*
G01*
X-720618Y202425D02*
G02*
X-764438Y202418I-21914J21903D01*
G75*
G01*
X-1209258Y75809D02*
G02*
X-1209258Y119626I21907J21909D01*
G75*
G01*
X-1152690Y176195D02*
G02*
X-1108875Y176195I21907J-21909D01*
G75*
G01*
X-956150Y23406D02*
G02*
X-956153Y-20409I-21910J-21906D01*
G75*
G01*
X-1012718Y-76975D02*
G02*
X-1056538Y-76982I-21914J21903D01*
G75*
G01*
X391302Y315864D02*
G02*
X435120Y315864I21909J-21907D01*
G75*
G01*
X491688Y259296D02*
G02*
X491688Y215481I-21909J-21908D01*
G75*
G01*
X338899Y62756D02*
G02*
X295084Y62758I-21906J21910D01*
G75*
G01*
X238519Y119324D02*
G02*
X238511Y163144I21902J21914D01*
G75*
G01*
X296362Y-1404612D02*
G02*
X265377Y-1435595I-30983J0D01*
G75*
G01*
X185379Y-1435595D02*
G02*
X154396Y-1404615I0J30983D01*
G75*
G01*
X154442Y-1188583D02*
G02*
X185425Y-1157602I30983J-2D01*
G75*
G01*
X265420Y-1157602D02*
G02*
X296413Y-1188583I10J-30983D01*
G75*
G01*
X-1021237Y-1251019D02*
G02*
X-1052223Y-1282001I-30983J0D01*
G75*
G01*
X-1132220Y-1282001D02*
G02*
X-1163203Y-1251019I0J30982D01*
G75*
G01*
X-1163157Y-1034989D02*
G02*
X-1132175Y-1004009I30982J-3D01*
G75*
G01*
X-1052177Y-1004009D02*
G02*
X-1021189Y-1034989I5J-30983D01*
G75*
G01*
X-1094958Y253609D02*
G02*
X-1094958Y297426I21907J21909D01*
G75*
G01*
X-1038390Y353995D02*
G02*
X-994575Y353995I21907J-21909D01*
G75*
G01*
X-841850Y201206D02*
G02*
X-841853Y157391I-21910J-21906D01*
G75*
G01*
X-898418Y100825D02*
G02*
X-942238Y100818I-21914J21903D01*
G75*
G01*
X-2068063Y-578975D02*
G02*
X-2037077Y-547992I30983J0D01*
G75*
G01*
X-1957080Y-547992D02*
G02*
X-1926097Y-578975I0J-30983D01*
G75*
G01*
X-1926143Y-795005D02*
G02*
X-1957126Y-825985I-30983J3D01*
G75*
G01*
X-2037123Y-825985D02*
G02*
X-2068111Y-795005I-5J30983D01*
G75*
G01*
X-1240338Y-795012D02*
G02*
X-1271323Y-825995I-30983J0D01*
G75*
G01*
X-1351321Y-825995D02*
G02*
X-1382304Y-795012I0J30983D01*
G75*
G01*
X-1382258Y-578983D02*
G02*
X-1351275Y-548002I30983J-2D01*
G75*
G01*
X-1271278Y-548002D02*
G02*
X-1240290Y-578983I5J-30983D01*
G75*
G01*
X-1910237Y-349319D02*
G02*
X-1941223Y-380301I-30983J0D01*
G75*
G01*
X-2021220Y-380301D02*
G02*
X-2052203Y-349319I0J30982D01*
G75*
G01*
X-2052157Y-133289D02*
G02*
X-2021175Y-102309I30982J-3D01*
G75*
G01*
X-1941177Y-102309D02*
G02*
X-1910189Y-133289I5J-30983D01*
G75*
G01*
X-1224437Y-349319D02*
G02*
X-1255423Y-380301I-30983J0D01*
G75*
G01*
X-1335420Y-380301D02*
G02*
X-1366403Y-349319I0J30982D01*
G75*
G01*
X-1366357Y-133289D02*
G02*
X-1335375Y-102309I30982J-3D01*
G75*
G01*
X-1255377Y-102309D02*
G02*
X-1224389Y-133289I5J-30983D01*
G75*
G01*
X1222418Y-1924131D02*
G02*
X1253401Y-1955117I0J-30983D01*
G75*
G01*
X1253401Y-2035114D02*
G02*
X1222418Y-2066097I-30983J0D01*
G75*
G01*
X1006389Y-2066051D02*
G02*
X975408Y-2035068I2J30983D01*
G75*
G01*
X975408Y-1955071D02*
G02*
X1006389Y-1924083I30983J5D01*
G75*
G01*
X1912463Y-450919D02*
G02*
X1881477Y-481901I-30983J0D01*
G75*
G01*
X1801480Y-481901D02*
G02*
X1770497Y-450919I0J30982D01*
G75*
G01*
X1770543Y-234889D02*
G02*
X1801525Y-203909I30982J-3D01*
G75*
G01*
X1881523Y-203909D02*
G02*
X1912511Y-234889I5J-30983D01*
G75*
G01*
X2622619Y-462437D02*
G02*
X2653601Y-493423I0J-30983D01*
G75*
G01*
X2653601Y-573420D02*
G02*
X2622619Y-604403I-30982J0D01*
G75*
G01*
X2406589Y-604357D02*
G02*
X2375609Y-573375I3J30982D01*
G75*
G01*
X2375609Y-493377D02*
G02*
X2406589Y-462389I30983J5D01*
G75*
G01*
X2153763Y-1606619D02*
G02*
X2122777Y-1637601I-30983J0D01*
G75*
G01*
X2042780Y-1637601D02*
G02*
X2011797Y-1606619I0J30982D01*
G75*
G01*
X2011843Y-1390589D02*
G02*
X2042825Y-1359609I30982J-3D01*
G75*
G01*
X2122823Y-1359609D02*
G02*
X2153811Y-1390589I5J-30983D01*
G75*
G01*
X1669981Y1503837D02*
G02*
X1638999Y1534823I0J30983D01*
G75*
G01*
X1638999Y1614820D02*
G02*
X1669981Y1645803I30982J0D01*
G75*
G01*
X1886011Y1645757D02*
G02*
X1916991Y1614775I-3J-30982D01*
G75*
G01*
X1916991Y1534777D02*
G02*
X1886011Y1503789I-30983J-5D01*
G75*
G01*
X1514381Y689844D02*
G02*
X1483398Y720829I0J30983D01*
G75*
G01*
X1483398Y800826D02*
G02*
X1514381Y831809I30983J0D01*
G75*
G01*
X1730411Y831764D02*
G02*
X1761391Y800781I-3J-30983D01*
G75*
G01*
X1761391Y720783D02*
G02*
X1730411Y689795I-30983J-5D01*
G75*
G01*
X-745038Y805188D02*
G02*
X-776023Y774205I-30983J0D01*
G75*
G01*
X-856021Y774205D02*
G02*
X-887004Y805188I0J30983D01*
G75*
G01*
X-886958Y1021217D02*
G02*
X-855975Y1052198I30983J-2D01*
G75*
G01*
X-775978Y1052198D02*
G02*
X-744990Y1021217I5J-30983D01*
G75*
G01*
X-554538Y805188D02*
G02*
X-585523Y774205I-30983J0D01*
G75*
G01*
X-665521Y774205D02*
G02*
X-696504Y805188I0J30983D01*
G75*
G01*
X-696458Y1021217D02*
G02*
X-665475Y1052198I30983J-2D01*
G75*
G01*
X-585478Y1052198D02*
G02*
X-554490Y1021217I5J-30983D01*
G75*
G01*
X1108118Y-628731D02*
G02*
X1139101Y-659717I0J-30983D01*
G75*
G01*
X1139101Y-739714D02*
G02*
X1108118Y-770697I-30983J0D01*
G75*
G01*
X892089Y-770651D02*
G02*
X861108Y-739668I2J30983D01*
G75*
G01*
X861108Y-659671D02*
G02*
X892089Y-628683I30983J5D01*
G75*
G01*
X1363162Y-680712D02*
G02*
X1332177Y-711695I-30983J0D01*
G75*
G01*
X1252179Y-711695D02*
G02*
X1221196Y-680712I0J30983D01*
G75*
G01*
X1221242Y-464683D02*
G02*
X1252225Y-433702I30983J-2D01*
G75*
G01*
X1332222Y-433702D02*
G02*
X1363210Y-464683I5J-30983D01*
G75*
G01*
X-2851219Y-197963D02*
G02*
X-2882202Y-166977I0J30983D01*
G75*
G01*
X-2882202Y-86980D02*
G02*
X-2851219Y-55997I30983J0D01*
G75*
G01*
X-2635189Y-56043D02*
G02*
X-2604209Y-87025I-3J-30982D01*
G75*
G01*
X-2604209Y-167023D02*
G02*
X-2635189Y-198011I-30983J-5D01*
D20*
G75*
G01*
X-571233Y-128448D02*
G03*
X-571233Y-128956I-29999J-254D01*
D21*
G75*
G01*
X-817717Y-22268D02*
G03*
X-817717Y-22522I-15001J-127D01*
D11*
G75*
G01*
X-898309Y1130389D02*
G03*
X-898055Y1130389I127J-8000D01*
D12*
G75*
G01*
X734865Y139182D02*
G03*
X734865Y160736I-10775J10777D01*
G75*
G01*
X628630Y266972D02*
G03*
X607075Y266972I-10778J-10776D01*
G75*
G01*
X478724Y-116959D02*
G02*
X457170Y-116959I-10777J10775D01*
G75*
G01*
X350934Y-10724D02*
G02*
X350934Y10831I10775J10777D01*
G75*
G01*
X2643060Y-669780D02*
G03*
X2627820Y-654540I-15240J0D01*
G75*
G01*
X2477579Y-654540D02*
G03*
X2462340Y-669780I1J-15240D01*
G75*
G01*
X2643060Y-1032020D02*
G02*
X2627820Y-1047260I-15240J0D01*
G75*
G01*
X2477579Y-1047260D02*
G02*
X2462340Y-1032020I1J15240D01*
G75*
G01*
X2858960Y-669780D02*
G03*
X2843720Y-654540I-15240J0D01*
G75*
G01*
X2693479Y-654540D02*
G03*
X2678240Y-669780I1J-15240D01*
G75*
G01*
X2858960Y-1032020D02*
G02*
X2843720Y-1047260I-15240J0D01*
G75*
G01*
X2693479Y-1047260D02*
G02*
X2678240Y-1032020I1J15240D01*
G75*
G01*
X1507980Y-1522540D02*
G03*
X1492740Y-1537780I0J-15240D01*
G75*
G01*
X1492740Y-1688020D02*
G03*
X1507980Y-1703260I15240J0D01*
G75*
G01*
X1870220Y-1522540D02*
G02*
X1885460Y-1537780I0J-15240D01*
G75*
G01*
X1885460Y-1688020D02*
G02*
X1870220Y-1703260I-15240J0D01*
G75*
G01*
X1507980Y-1725740D02*
G03*
X1492740Y-1740980I0J-15240D01*
G75*
G01*
X1492740Y-1891220D02*
G03*
X1507980Y-1906460I15240J0D01*
G75*
G01*
X1870220Y-1725740D02*
G02*
X1885460Y-1740980I0J-15240D01*
G75*
G01*
X1885460Y-1891220D02*
G02*
X1870220Y-1906460I-15240J0D01*
G75*
G01*
X1507980Y-1941640D02*
G03*
X1492740Y-1956880I0J-15240D01*
G75*
G01*
X1492740Y-2107120D02*
G03*
X1507980Y-2122360I15240J0D01*
G75*
G01*
X1870220Y-1941640D02*
G02*
X1885460Y-1956880I0J-15240D01*
G75*
G01*
X1885460Y-2107120D02*
G02*
X1870220Y-2122360I-15240J0D01*
G75*
G01*
X1507980Y-2144840D02*
G03*
X1492740Y-2160080I0J-15240D01*
G75*
G01*
X1492740Y-2310320D02*
G03*
X1507980Y-2325560I15240J0D01*
G75*
G01*
X1870220Y-2144840D02*
G02*
X1885460Y-2160080I0J-15240D01*
G75*
G01*
X1885460Y-2310320D02*
G02*
X1870220Y-2325560I-15240J0D01*
G75*
G01*
X2810020Y-2147760D02*
G03*
X2825260Y-2132520I0J15240D01*
G75*
G01*
X2825260Y-1982280D02*
G03*
X2810020Y-1967040I-15240J0D01*
G75*
G01*
X2447780Y-2147760D02*
G02*
X2432540Y-2132520I0J15240D01*
G75*
G01*
X2432540Y-1982280D02*
G02*
X2447780Y-1967040I15240J0D01*
G75*
G01*
X2810020Y-1957260D02*
G03*
X2825260Y-1942020I0J15240D01*
G75*
G01*
X2825260Y-1791780D02*
G03*
X2810020Y-1776540I-15240J0D01*
G75*
G01*
X2447780Y-1957260D02*
G02*
X2432540Y-1942020I0J15240D01*
G75*
G01*
X2432540Y-1791780D02*
G02*
X2447780Y-1776540I15240J0D01*
G75*
G01*
X2810020Y-1766760D02*
G03*
X2825260Y-1751520I0J15240D01*
G75*
G01*
X2825260Y-1601280D02*
G03*
X2810020Y-1586040I-15240J0D01*
G75*
G01*
X2447780Y-1766760D02*
G02*
X2432540Y-1751520I0J15240D01*
G75*
G01*
X2432540Y-1601280D02*
G02*
X2447780Y-1586040I15240J0D01*
G75*
G01*
X2604960Y1476520D02*
G03*
X2589720Y1491760I-15240J0D01*
G75*
G01*
X2439479Y1491760D02*
G03*
X2424240Y1476520I1J-15240D01*
G75*
G01*
X2604960Y1114280D02*
G02*
X2589720Y1099040I-15240J0D01*
G75*
G01*
X2439479Y1099040D02*
G02*
X2424240Y1114280I1J15240D01*
G75*
G01*
X2835420Y1598740D02*
G03*
X2850660Y1613980I0J15240D01*
G75*
G01*
X2850660Y1764220D02*
G03*
X2835420Y1779460I-15240J0D01*
G75*
G01*
X2473180Y1598740D02*
G02*
X2457940Y1613980I0J15240D01*
G75*
G01*
X2457940Y1764220D02*
G02*
X2473180Y1779460I15240J0D01*
G75*
G01*
X1834980Y1473467D02*
G03*
X1819740Y1458227I0J-15240D01*
G75*
G01*
X1819740Y1307986D02*
G03*
X1834980Y1292746I15240J0D01*
G75*
G01*
X2197219Y1473467D02*
G02*
X2212459Y1458227I0J-15240D01*
G75*
G01*
X2212459Y1307986D02*
G02*
X2197219Y1292746I-15240J0D01*
G75*
G01*
X1481239Y897186D02*
G03*
X1496479Y881946I15240J0D01*
G75*
G01*
X1646720Y881946D02*
G03*
X1661960Y897186I0J15240D01*
G75*
G01*
X1481239Y1259426D02*
G02*
X1496479Y1274666I15240J0D01*
G75*
G01*
X1646720Y1274666D02*
G02*
X1661960Y1259426I0J-15240D01*
D18*
G75*
G01*
X2020900Y-1822806D02*
G02*
X2033397Y-1810283I12497J26D01*
G75*
G01*
X2033397Y-1810283D02*
G02*
X2045894Y-1822806I0J-12497D01*
G75*
G01*
X2045894Y-1822806D02*
G02*
X2033397Y-1835302I-12497J0D01*
G75*
G01*
X2033397Y-1835302D02*
G02*
X2020900Y-1822806I0J12496D01*
D11*
G75*
G01
X696392Y-1995094D02*
G03X696392Y-1995094I-89992J0D01*
G75*
G01
X696392Y-1626794D02*
G03X696392Y-1626794I-89992J0D01*
D21*
G75*
G01
X1994484Y-498450D02*
G03X1994484Y-498450I-15011J0D01*
D14*
G75*
G01
X829793Y-305994D02*
G03X829793Y-305994I-7493J0D01*
D11*
G75*
G01
X-2866288Y451307D02*
G03X-2866288Y451307I-111811J0D01*
G75*
G01
X-2968092Y451307D02*
G03X-2968092Y451307I-10008J0D01*
G75*
G01
X-2565806Y1251509D02*
G03X-2565806Y1251509I-212141J0D01*
D10*
G75*
G01
X-3188106Y61316D02*
G03X-3188106Y61316I-19990J0D01*
M02*
